<!DOCTYPE svg PUBLIC "-//W3C//DTD SVG 20010904//EN" "http://www.w3.org/TR/2001/REC-SVG-20010904/DTD/svg10.dtd">
<svg version="1.0" xmlns="http://www.w3.org/2000/svg" width="180px" height="50px" viewBox="0 0 1800 500" preserveAspectRatio="xMidYMid meet">
<g id="layer101" fill="#010101" stroke="none">
 <path d="M0 250 l0 -250 900 0 900 0 0 250 0 250 -900 0 -900 0 0 -250z"/>
 </g>
<g id="layer102" fill="#0c0245" stroke="none">
 <path d="M0 250 l0 -250 900 0 900 0 0 250 0 250 -900 0 -900 0 0 -250z m1001 111 c22 -18 24 -28 27 -130 l4 -111 -26 0 -26 0 0 88 c0 95 -12 127 -46 120 -15 -2 -20 -13 -22 -51 -3 -42 -5 -47 -28 -47 -22 0 -24 4 -24 49 0 66 27 101 80 101 22 0 47 -8 61 -19z m129 4 c0 -11 12 -15 44 -15 30 0 46 5 50 15 5 15 56 22 56 8 0 -5 -17 -62 -38 -128 -37 -116 -39 -120 -66 -120 -28 0 -30 3 -66 128 l-38 127 29 0 c19 0 29 -5 29 -15z m260 -29 c0 -44 0 -45 38 -48 32 -3 37 -7 40 -30 3 -27 1 -28 -37 -28 -39 0 -41 -2 -41 -30 0 -30 1 -30 55 -30 52 0 55 -1 55 -25 0 -25 -1 -25 -85 -25 l-85 0 0 130 0 130 30 0 c29 0 30 -2 30 -44z"/>
 <path d="M1169 292 c-14 -6 -14 -12 -4 -47 l12 -40 11 40 c17 59 16 62 -19 47z"/>
 </g>
<g id="layer103" fill="#000066" stroke="none">
 <path d="M0 250 l0 -250 900 0 900 0 0 250 0 250 -900 0 -900 0 0 -250z m614 150 c14 -5 26 -14 26 -20 0 -11 -50 -13 -129 -3 -50 6 -52 7 -30 19 28 16 97 18 133 4z m387 -39 c22 -18 24 -28 27 -130 l4 -111 -26 0 -26 0 0 88 c0 95 -12 127 -46 120 -15 -2 -20 -13 -22 -51 -3 -42 -5 -47 -28 -47 -22 0 -24 4 -24 49 0 66 27 101 80 101 22 0 47 -8 61 -19z m129 4 c0 -11 12 -15 44 -15 30 0 46 5 50 15 5 15 56 22 56 8 0 -5 -17 -62 -38 -128 -37 -116 -39 -120 -66 -120 -28 0 -30 3 -66 128 l-38 127 29 0 c19 0 29 -5 29 -15z m260 -29 c0 -44 0 -45 38 -48 32 -3 37 -7 40 -30 3 -27 1 -28 -37 -28 -39 0 -41 -2 -41 -30 0 -30 1 -30 55 -30 52 0 55 -1 55 -25 0 -25 -1 -25 -85 -25 l-85 0 0 130 0 130 30 0 c29 0 30 -2 30 -44z m-690 -18 c0 -4 -7 -5 -15 -2 -8 4 -17 -1 -21 -10 -3 -9 -10 -16 -15 -16 -13 0 -11 49 4 65 10 11 15 10 29 -8 10 -12 18 -25 18 -29z m-166 16 c21 -21 21 -46 -1 -42 -9 2 -20 15 -24 31 -8 30 2 35 25 11z m63 -26 c-3 -7 -5 -2 -5 12 0 14 2 19 5 13 2 -7 2 -19 0 -25z m-132 -4 c14 19 15 18 15 -11 0 -18 -4 -35 -10 -38 -5 -3 -10 -15 -10 -26 0 -10 5 -19 10 -19 6 0 10 -4 10 -10 0 -5 -7 -10 -15 -10 -24 0 -29 -28 -10 -58 l18 -27 -21 18 c-43 38 -67 137 -46 191 5 13 9 12 25 -7 19 -22 19 -22 34 -3z m243 -56 l-3 -23 -13 23 c-10 18 -10 25 0 36 11 12 13 12 16 0 2 -8 2 -24 0 -36z m-150 -25 l11 -38 -19 25 c-20 26 -26 50 -12 50 5 0 14 -17 20 -37z m106 29 c2 -4 1 -14 -3 -21 -6 -9 -10 -7 -14 8 -5 20 7 29 17 13z m-57 -29 c-4 -3 -7 0 -7 7 0 7 3 10 7 7 3 -4 3 -10 0 -14z m80 -20 c-4 -3 -10 -3 -14 0 -3 4 0 7 7 7 7 0 10 -3 7 -7z m-28 -24 c34 -12 38 -21 18 -38 -14 -11 -31 2 -51 37 -9 15 -7 15 33 1z m-154 -19 c3 -5 -1 -10 -10 -10 -9 0 -13 5 -10 10 3 6 8 10 10 10 2 0 7 -4 10 -10z m50 0 c3 -5 4 -10 1 -10 -3 0 -8 5 -11 10 -3 6 -4 10 -1 10 3 0 8 -4 11 -10z m75 -49 c0 -19 -77 -28 -127 -15 -46 13 -21 24 52 24 41 0 75 -4 75 -9z"/>
 <path d="M1169 292 c-14 -6 -14 -12 -4 -47 l12 -40 11 40 c17 59 16 62 -19 47z"/>
 </g>
<g id="layer104" fill="#29205b" stroke="none">
 <path d="M8 255 l3 -245 889 0 889 0 3 245 3 245 -895 0 -895 0 3 -245z m606 145 c14 -5 26 -14 26 -20 0 -11 -50 -13 -129 -3 -50 6 -52 7 -30 19 28 16 97 18 133 4z m387 -39 c22 -18 24 -28 27 -130 l4 -111 -26 0 -26 0 0 88 c0 95 -12 127 -46 120 -15 -2 -20 -13 -22 -51 -3 -42 -5 -47 -28 -47 -22 0 -24 4 -24 49 0 66 27 101 80 101 22 0 47 -8 61 -19z m129 4 c0 -11 12 -15 44 -15 30 0 46 5 50 15 5 15 56 22 56 8 0 -5 -17 -62 -38 -128 -37 -116 -39 -120 -66 -120 -28 0 -30 3 -66 128 l-38 127 29 0 c19 0 29 -5 29 -15z m260 -29 c0 -44 0 -45 38 -48 32 -3 37 -7 40 -30 3 -27 1 -28 -37 -28 -39 0 -41 -2 -41 -30 0 -30 1 -30 55 -30 52 0 55 -1 55 -25 0 -25 -1 -25 -85 -25 l-85 0 0 130 0 130 30 0 c29 0 30 -2 30 -44z m-690 -18 c0 -4 -7 -5 -15 -2 -8 4 -17 -1 -21 -10 -3 -9 -10 -16 -15 -16 -13 0 -11 49 4 65 10 11 15 10 29 -8 10 -12 18 -25 18 -29z m-166 16 c21 -21 21 -46 -1 -42 -9 2 -20 15 -24 31 -8 30 2 35 25 11z m63 -26 c-3 -7 -5 -2 -5 12 0 14 2 19 5 13 2 -7 2 -19 0 -25z m-132 -4 c14 19 15 18 15 -11 0 -18 -4 -35 -10 -38 -5 -3 -10 -15 -10 -26 0 -10 5 -19 10 -19 6 0 10 -4 10 -10 0 -5 -7 -10 -15 -10 -24 0 -29 -28 -10 -58 l18 -27 -21 18 c-43 38 -67 137 -46 191 5 13 9 12 25 -7 19 -22 19 -22 34 -3z m243 -56 l-3 -23 -13 23 c-10 18 -10 25 0 36 11 12 13 12 16 0 2 -8 2 -24 0 -36z m-150 -25 l11 -38 -19 25 c-20 26 -26 50 -12 50 5 0 14 -17 20 -37z m106 29 c2 -4 1 -14 -3 -21 -6 -9 -10 -7 -14 8 -5 20 7 29 17 13z m-57 -29 c-4 -3 -7 0 -7 7 0 7 3 10 7 7 3 -4 3 -10 0 -14z m80 -20 c-4 -3 -10 -3 -14 0 -3 4 0 7 7 7 7 0 10 -3 7 -7z m-28 -24 c34 -12 38 -21 18 -38 -14 -11 -31 2 -51 37 -9 15 -7 15 33 1z m-154 -19 c3 -5 -1 -10 -10 -10 -9 0 -13 5 -10 10 3 6 8 10 10 10 2 0 7 -4 10 -10z m50 0 c3 -5 4 -10 1 -10 -3 0 -8 5 -11 10 -3 6 -4 10 -1 10 3 0 8 -4 11 -10z m75 -49 c0 -19 -77 -28 -127 -15 -46 13 -21 24 52 24 41 0 75 -4 75 -9z"/>
 <path d="M1169 292 c-14 -6 -14 -12 -4 -47 l12 -40 11 40 c17 59 16 62 -19 47z"/>
 </g>
<g id="layer105" fill="#383067" stroke="none">
 <path d="M8 255 l3 -245 889 0 889 0 3 245 3 245 -895 0 -895 0 3 -245z m613 145 c50 -27 3 -37 -110 -23 -50 6 -52 7 -30 19 29 16 113 18 140 4z m55 -29 c-3 -4 1 -17 9 -27 19 -25 19 -35 0 -28 -8 4 -17 -1 -21 -10 -3 -9 -10 -16 -15 -16 -16 0 -10 49 8 70 18 20 29 27 19 11z m325 -10 c22 -18 24 -28 27 -130 l4 -111 -26 0 -26 0 0 88 c0 95 -12 127 -46 120 -15 -2 -20 -13 -22 -51 -3 -42 -5 -47 -28 -47 -22 0 -24 4 -24 49 0 66 27 101 80 101 22 0 47 -8 61 -19z m129 4 c0 -11 12 -15 44 -15 30 0 46 5 50 15 5 15 56 22 56 8 0 -5 -17 -62 -38 -128 -37 -116 -39 -120 -66 -120 -28 0 -30 3 -66 128 l-38 127 29 0 c19 0 29 -5 29 -15z m260 -29 c0 -44 0 -45 38 -48 32 -3 37 -7 40 -30 3 -27 1 -28 -37 -28 -39 0 -41 -2 -41 -30 0 -30 1 -30 55 -30 52 0 55 -1 55 -25 0 -25 -1 -25 -85 -25 l-85 0 0 130 0 130 30 0 c29 0 30 -2 30 -44z m-850 -5 c14 -27 13 -41 -5 -41 -13 0 -35 36 -35 56 0 13 31 1 40 -15z m57 -23 c-3 -7 -5 -2 -5 12 0 14 2 19 5 13 2 -7 2 -19 0 -25z m-132 -4 c14 19 15 18 15 -11 0 -18 -4 -35 -10 -38 -5 -3 -10 -15 -10 -26 0 -10 5 -19 10 -19 6 0 10 -4 10 -10 0 -5 -7 -10 -15 -10 -24 0 -29 -28 -10 -58 l18 -27 -21 18 c-43 38 -67 137 -46 191 5 13 9 12 25 -7 19 -22 19 -22 34 -3z m245 -39 c0 -24 -4 -33 -13 -29 -16 6 -18 34 -3 51 16 17 16 17 16 -22z m-160 -8 c0 -1 4 -17 9 -35 12 -39 -2 -34 -24 9 -14 26 -14 29 0 29 8 0 15 -1 15 -3z m114 -5 c2 -4 1 -14 -3 -21 -6 -9 -10 -7 -14 8 -5 20 7 29 17 13z m-57 -29 c-4 -3 -7 0 -7 7 0 7 3 10 7 7 3 -4 3 -10 0 -14z m80 -20 c-4 -3 -10 -3 -14 0 -3 4 0 7 7 7 7 0 10 -3 7 -7z m-28 -24 c34 -12 37 -19 19 -37 -9 -9 -17 -7 -35 10 -13 12 -23 25 -23 30 0 10 1 10 39 -3z m-264 -9 c3 -5 4 -10 1 -10 -3 0 -8 5 -11 10 -3 6 -4 10 -1 10 3 0 8 -4 11 -10z m110 -10 c3 -5 -1 -10 -10 -10 -9 0 -13 5 -10 10 3 6 8 10 10 10 2 0 7 -4 10 -10z m55 -11 c0 -6 -4 -7 -10 -4 -5 3 -10 11 -10 16 0 6 5 7 10 4 6 -3 10 -11 10 -16z m167 4 c-4 -3 -10 -3 -14 0 -3 4 0 7 7 7 7 0 10 -3 7 -7z m-97 -48 c-25 -15 -106 -20 -134 -9 -38 15 -10 24 72 24 80 -1 85 -2 62 -15z m90 1 c0 -2 -8 -10 -17 -17 -16 -13 -17 -12 -4 4 13 16 21 21 21 13z"/>
 <path d="M1169 292 c-14 -6 -14 -12 -4 -47 l12 -40 11 40 c17 59 16 62 -19 47z"/>
 </g>
<g id="layer106" fill="#473f72" stroke="none">
 <path d="M8 255 l3 -245 889 0 889 0 3 245 3 245 -895 0 -895 0 3 -245z m616 144 c55 -25 1 -36 -113 -22 -50 6 -52 7 -30 19 30 16 110 18 143 3z m62 -24 c-17 -13 -16 -19 4 -17 3 0 7 -7 8 -16 15 -117 15 -111 -8 -105 -13 3 -25 1 -30 -6 -5 -9 -9 -6 -13 8 -4 18 -2 20 19 15 19 -5 23 -3 18 10 -3 9 -1 16 5 16 13 0 15 27 2 35 -5 3 -16 -2 -24 -10 -22 -21 -27 -19 -27 11 0 24 40 75 58 74 4 0 -2 -7 -12 -15z m315 -14 c22 -18 24 -28 27 -130 l4 -111 -26 0 -26 0 0 88 c0 95 -12 127 -46 120 -15 -2 -20 -13 -22 -51 -3 -42 -5 -47 -28 -47 -22 0 -24 4 -24 49 0 66 27 101 80 101 22 0 47 -8 61 -19z m129 4 c0 -11 12 -15 44 -15 30 0 46 5 50 15 5 15 56 22 56 8 0 -5 -17 -62 -38 -128 -37 -116 -39 -120 -66 -120 -28 0 -30 3 -66 128 l-38 127 29 0 c19 0 29 -5 29 -15z m260 -29 c0 -44 0 -45 38 -48 32 -3 37 -7 40 -30 3 -27 1 -28 -37 -28 -39 0 -41 -2 -41 -30 0 -30 1 -30 55 -30 52 0 55 -1 55 -25 0 -25 -1 -25 -85 -25 l-85 0 0 130 0 130 30 0 c29 0 30 -2 30 -44z m-993 7 c-4 -3 -10 -3 -14 0 -3 4 0 7 7 7 7 0 10 -3 7 -7z m143 -12 c14 -27 13 -41 -5 -41 -13 0 -35 36 -35 56 0 13 31 1 40 -15z m-66 -7 c9 -24 7 -52 -6 -73 -9 -15 -7 -24 9 -47 33 -48 35 -54 19 -54 -10 0 -13 6 -10 15 8 19 -23 32 -39 16 -8 -8 -7 -19 6 -41 26 -44 12 -37 -23 12 -24 33 -30 51 -30 94 0 75 7 90 30 61 15 -17 21 -19 31 -10 10 10 9 15 -1 28 -7 8 -8 15 -2 15 5 0 13 -7 16 -16z m123 -16 c-3 -7 -5 -2 -5 12 0 14 2 19 5 13 2 -7 2 -19 0 -25z m137 6 c3 -8 2 -12 -4 -9 -6 3 -10 10 -10 16 0 14 7 11 14 -7z m-170 -101 c14 -43 14 -46 0 -28 -9 11 -22 32 -30 48 -13 23 -13 27 0 27 8 0 21 -20 30 -47z m43 15 c-3 -8 -6 -5 -6 6 -1 11 2 17 5 13 3 -3 4 -12 1 -19z m80 -25 c-4 -3 -10 -3 -14 0 -3 4 0 7 7 7 7 0 10 -3 7 -7z m-28 -24 c34 -12 37 -19 19 -37 -9 -9 -17 -7 -35 10 -13 12 -23 25 -23 30 0 10 1 10 39 -3z m-264 -9 c3 -5 4 -10 1 -10 -3 0 -8 5 -11 10 -3 6 -4 10 -1 10 3 0 8 -4 11 -10z m165 -21 c0 -6 -4 -7 -10 -4 -5 3 -10 11 -10 16 0 6 5 7 10 4 6 -3 10 -11 10 -16z m167 5 c-3 -3 -12 -4 -19 -1 -8 3 -5 6 6 6 11 1 17 -2 13 -5z m-98 -50 c-25 -14 -105 -19 -133 -8 -48 18 13 32 108 25 48 -3 49 -4 25 -17z m91 2 c0 -2 -8 -10 -17 -17 -16 -13 -17 -12 -4 4 13 16 21 21 21 13z m-79 -29 c-10 -9 -11 -8 -5 6 3 10 9 15 12 12 3 -3 0 -11 -7 -18z"/>
 <path d="M1169 292 c-14 -6 -14 -12 -4 -47 l12 -40 11 40 c17 59 16 62 -19 47z"/>
 </g>
<g id="layer107" fill="#3f3f8d" stroke="none">
 <path d="M8 255 l3 -245 889 0 889 0 3 245 3 245 -895 0 -895 0 3 -245z m565 208 c-7 -2 -21 -2 -30 0 -10 3 -4 5 12 5 17 0 24 -2 18 -5z m-153 -47 c0 -2 -8 -10 -17 -17 -16 -13 -17 -12 -4 4 13 16 21 21 21 13z m169 -6 c25 -7 39 -6 50 3 14 11 14 10 2 -5 -9 -12 -10 -18 -2 -18 6 0 11 -4 11 -10 0 -12 -132 -12 -170 0 -23 6 -23 8 -6 15 10 4 32 11 50 15 17 5 31 8 31 9 0 1 16 -3 34 -9z m97 -35 c-17 -13 -15 -19 5 -17 4 1 6 -4 6 -11 -1 -7 4 -32 12 -56 7 -23 9 -50 6 -60 -5 -11 -9 -12 -12 -3 -3 6 -13 12 -24 12 -10 0 -19 -6 -19 -12 0 -9 -4 -8 -10 2 -15 23 -12 32 10 25 14 -5 20 -2 20 9 0 9 5 16 10 16 6 0 10 7 10 15 0 8 -9 15 -20 15 -11 0 -20 -4 -20 -10 0 -5 -4 -10 -10 -10 -20 0 -10 53 16 76 14 13 28 24 32 24 4 0 -2 -7 -12 -15z m44 1 c0 -3 -5 -8 -12 -12 -7 -4 -8 -3 -4 4 7 12 16 16 16 8z m271 -15 c22 -18 24 -28 27 -130 l4 -111 -26 0 -26 0 0 88 c0 95 -12 127 -46 120 -15 -2 -20 -13 -22 -51 -3 -42 -5 -47 -28 -47 -22 0 -24 4 -24 49 0 66 27 101 80 101 22 0 47 -8 61 -19z m129 4 c0 -11 12 -15 44 -15 30 0 46 5 50 15 5 15 56 22 56 8 0 -5 -17 -62 -38 -128 -37 -116 -39 -120 -66 -120 -28 0 -30 3 -66 128 l-38 127 29 0 c19 0 29 -5 29 -15z m260 -29 c0 -44 0 -45 38 -48 32 -3 37 -7 40 -30 3 -27 1 -28 -37 -28 -39 0 -41 -2 -41 -30 0 -30 1 -30 55 -30 52 0 55 -1 55 -25 0 -25 -1 -25 -85 -25 l-85 0 0 130 0 130 30 0 c29 0 30 -2 30 -44z m-993 7 c-4 -3 -10 -3 -14 0 -3 4 0 7 7 7 7 0 10 -3 7 -7z m26 -11 c-6 -24 23 -50 39 -34 8 8 8 15 -2 27 -7 8 -8 15 -2 15 23 0 32 -85 10 -93 -10 -4 -10 -8 -1 -23 37 -56 44 -74 29 -74 -10 0 -13 6 -10 15 8 19 -23 32 -39 16 -8 -8 -7 -19 7 -44 l18 -32 -31 32 c-40 43 -55 100 -40 156 6 23 13 45 16 50 8 13 11 7 6 -11z m117 -1 c15 -29 12 -41 -10 -41 -11 0 -20 6 -20 14 0 8 -3 21 -6 30 -9 23 23 20 36 -3z m57 -23 c-3 -7 -5 -2 -5 12 0 14 2 19 5 13 2 -7 2 -19 0 -25z m137 6 c5 -14 4 -15 -9 -4 -17 14 -19 20 -6 20 5 0 12 -7 15 -16z m-387 -86 c-2 -13 -4 -3 -4 22 0 25 2 35 4 23 2 -13 2 -33 0 -45z m400 55 c-4 -3 -10 -3 -14 0 -3 4 0 7 7 7 7 0 10 -3 7 -7z m20 -45 c-3 -7 -5 -2 -5 12 0 14 2 19 5 13 2 -7 2 -19 0 -25z m-203 -25 c14 -43 14 -46 0 -28 -9 11 -22 32 -30 48 -13 23 -13 27 0 27 8 0 21 -20 30 -47z m43 15 c-3 -8 -6 -5 -6 6 -1 11 2 17 5 13 3 -3 4 -12 1 -19z m140 5 c-4 -3 -10 -3 -14 0 -3 4 0 7 7 7 7 0 10 -3 7 -7z m0 -30 c-4 -3 -7 0 -7 7 0 7 3 10 7 7 3 -4 3 -10 0 -14z m-60 0 c-4 -3 -10 -3 -14 0 -3 4 0 7 7 7 7 0 10 -3 7 -7z m-28 -24 c34 -12 37 -19 19 -37 -9 -9 -17 -7 -35 10 -13 12 -23 25 -23 30 0 10 1 10 39 -3z m-264 -9 c3 -5 4 -10 1 -10 -3 0 -8 5 -11 10 -3 6 -4 10 -1 10 3 0 8 -4 11 -10z m165 -21 c0 -6 -4 -7 -10 -4 -5 3 -10 11 -10 16 0 6 5 7 10 4 6 -3 10 -11 10 -16z m165 11 c3 -5 -1 -10 -10 -10 -9 0 -13 5 -10 10 3 6 8 10 10 10 2 0 7 -4 10 -10z m-115 -39 c38 -1 42 -3 26 -13 -34 -19 -86 -26 -121 -17 -56 16 -41 39 20 34 17 -2 50 -3 75 -4z m110 -15 c0 -2 -8 -10 -17 -17 -16 -13 -17 -12 -4 4 13 16 21 21 21 13z m-79 -29 c-10 -9 -11 -8 -5 6 3 10 9 15 12 12 3 -3 0 -11 -7 -18z m-94 -24 c-4 -3 -7 0 -7 7 0 7 3 10 7 7 3 -4 3 -10 0 -14z m50 0 c-4 -3 -7 0 -7 7 0 7 3 10 7 7 3 -4 3 -10 0 -14z m-30 -19 c-3 -3 -12 -4 -19 -1 -8 3 -5 6 6 6 11 1 17 -2 13 -5z"/>
 <path d="M1169 292 c-14 -6 -14 -12 -4 -47 l12 -40 11 40 c17 59 16 62 -19 47z"/>
 </g>
<g id="layer108" fill="#57507f" stroke="none">
 <path d="M10 250 l0 -240 890 0 890 0 0 240 0 240 -890 0 -890 0 0 -240z m563 213 c-7 -2 -21 -2 -30 0 -10 3 -4 5 12 5 17 0 24 -2 18 -5z m-153 -47 c0 -2 -8 -10 -17 -17 -16 -13 -17 -12 -4 4 13 16 21 21 21 13z m169 -6 c25 -7 39 -6 50 3 14 11 14 10 2 -5 -9 -12 -10 -18 -2 -18 6 0 11 -4 11 -10 0 -12 -132 -12 -170 0 -23 6 -23 8 -6 15 10 4 32 11 50 15 17 5 31 8 31 9 0 1 16 -3 34 -9z m97 -35 c-17 -13 -15 -19 5 -17 4 1 6 -4 6 -11 -1 -7 4 -32 12 -56 7 -23 9 -50 6 -60 -5 -11 -9 -12 -12 -3 -3 6 -13 12 -24 12 -10 0 -19 -6 -19 -12 0 -9 -4 -8 -10 2 -15 23 -12 32 10 25 14 -5 20 -2 20 9 0 9 5 16 10 16 6 0 10 7 10 15 0 8 -9 15 -20 15 -11 0 -20 -4 -20 -10 0 -5 -4 -10 -10 -10 -20 0 -10 53 16 76 14 13 28 24 32 24 4 0 -2 -7 -12 -15z m44 1 c0 -3 -5 -8 -12 -12 -7 -4 -8 -3 -4 4 7 12 16 16 16 8z m271 -15 c22 -18 24 -28 27 -130 l4 -111 -26 0 -26 0 0 88 c0 95 -12 127 -46 120 -15 -2 -20 -13 -22 -51 -3 -42 -5 -47 -28 -47 -22 0 -24 4 -24 49 0 66 27 101 80 101 22 0 47 -8 61 -19z m129 4 c0 -11 12 -15 44 -15 30 0 46 5 50 15 5 15 56 22 56 8 0 -5 -17 -62 -38 -128 -37 -116 -39 -120 -66 -120 -28 0 -30 3 -66 128 l-38 127 29 0 c19 0 29 -5 29 -15z m260 -29 c0 -44 0 -45 38 -48 32 -3 37 -7 40 -30 3 -27 1 -28 -37 -28 -39 0 -41 -2 -41 -30 0 -30 1 -30 55 -30 52 0 55 -1 55 -25 0 -25 -1 -25 -85 -25 l-85 0 0 130 0 130 30 0 c29 0 30 -2 30 -44z m-993 7 c-4 -3 -10 -3 -14 0 -3 4 0 7 7 7 7 0 10 -3 7 -7z m26 -11 c-6 -24 23 -50 39 -34 8 8 8 15 -2 27 -7 8 -8 15 -2 15 23 0 32 -85 10 -93 -10 -4 -10 -8 -1 -23 37 -56 44 -74 29 -74 -10 0 -13 6 -10 15 8 19 -23 32 -39 16 -8 -8 -7 -19 7 -44 l18 -32 -31 32 c-40 43 -55 100 -40 156 6 23 13 45 16 50 8 13 11 7 6 -11z m117 -1 c15 -29 12 -41 -10 -41 -11 0 -20 6 -20 14 0 8 -3 21 -6 30 -9 23 23 20 36 -3z m57 -23 c-3 -7 -5 -2 -5 12 0 14 2 19 5 13 2 -7 2 -19 0 -25z m137 6 c5 -14 4 -15 -9 -4 -17 14 -19 20 -6 20 5 0 12 -7 15 -16z m-387 -86 c-2 -13 -4 -3 -4 22 0 25 2 35 4 23 2 -13 2 -33 0 -45z m400 55 c-4 -3 -10 -3 -14 0 -3 4 0 7 7 7 7 0 10 -3 7 -7z m20 -45 c-3 -7 -5 -2 -5 12 0 14 2 19 5 13 2 -7 2 -19 0 -25z m-203 -25 c14 -43 14 -46 0 -28 -9 11 -22 32 -30 48 -13 23 -13 27 0 27 8 0 21 -20 30 -47z m43 15 c-3 -8 -6 -5 -6 6 -1 11 2 17 5 13 3 -3 4 -12 1 -19z m140 5 c-4 -3 -10 -3 -14 0 -3 4 0 7 7 7 7 0 10 -3 7 -7z m0 -30 c-4 -3 -7 0 -7 7 0 7 3 10 7 7 3 -4 3 -10 0 -14z m-60 0 c-4 -3 -10 -3 -14 0 -3 4 0 7 7 7 7 0 10 -3 7 -7z m-28 -24 c34 -12 37 -19 19 -37 -9 -9 -17 -7 -35 10 -13 12 -23 25 -23 30 0 10 1 10 39 -3z m-264 -9 c3 -5 4 -10 1 -10 -3 0 -8 5 -11 10 -3 6 -4 10 -1 10 3 0 8 -4 11 -10z m165 -21 c0 -6 -4 -7 -10 -4 -5 3 -10 11 -10 16 0 6 5 7 10 4 6 -3 10 -11 10 -16z m165 11 c3 -5 -1 -10 -10 -10 -9 0 -13 5 -10 10 3 6 8 10 10 10 2 0 7 -4 10 -10z m-115 -39 c38 -1 42 -3 26 -13 -34 -19 -86 -26 -121 -17 -56 16 -41 39 20 34 17 -2 50 -3 75 -4z m110 -15 c0 -2 -8 -10 -17 -17 -16 -13 -17 -12 -4 4 13 16 21 21 21 13z m-79 -29 c-10 -9 -11 -8 -5 6 3 10 9 15 12 12 3 -3 0 -11 -7 -18z m-94 -24 c-4 -3 -7 0 -7 7 0 7 3 10 7 7 3 -4 3 -10 0 -14z m50 0 c-4 -3 -7 0 -7 7 0 7 3 10 7 7 3 -4 3 -10 0 -14z m-30 -19 c-3 -3 -12 -4 -19 -1 -8 3 -5 6 6 6 11 1 17 -2 13 -5z"/>
 <path d="M1169 292 c-14 -6 -14 -12 -4 -47 l12 -40 11 40 c17 59 16 62 -19 47z"/>
 </g>
<g id="layer109" fill="#66608a" stroke="none">
 <path d="M10 250 l0 -240 890 0 890 0 0 240 0 240 -890 0 -890 0 0 -240z m568 213 c-10 -2 -28 -2 -40 0 -13 2 -5 4 17 4 22 1 32 -1 23 -4z m37 -23 c3 -5 4 -10 1 -10 -3 0 -8 5 -11 10 -3 6 -4 10 -1 10 3 0 8 -4 11 -10z m-185 -13 c0 -2 -10 -12 -22 -23 l-23 -19 19 23 c18 21 26 27 26 19z m159 -17 c25 -7 39 -6 50 3 14 11 14 10 2 -5 -9 -12 -10 -18 -2 -18 6 0 11 -4 11 -10 0 -12 -132 -12 -170 0 l-25 7 25 10 c21 9 42 16 70 22 3 0 21 -3 39 -9z m-154 -20 c3 -5 4 -10 1 -10 -3 0 -8 5 -11 10 -3 6 -4 10 -1 10 3 0 8 -4 11 -10z m251 -15 c-11 -8 -18 -15 -15 -16 31 -5 42 -9 47 -15 4 -4 -1 -4 -12 0 -15 5 -17 3 -11 -11 20 -49 27 -95 16 -106 -8 -8 -11 -8 -11 1 0 7 -9 12 -20 12 -11 0 -20 -6 -20 -12 0 -9 -4 -8 -10 2 -15 23 -12 32 10 25 14 -5 20 -2 20 9 0 9 5 16 10 16 6 0 10 7 10 15 0 8 -9 15 -20 15 -11 0 -20 -4 -20 -10 0 -5 -4 -10 -10 -10 -20 0 -10 53 16 76 14 13 28 24 32 24 4 0 -2 -7 -12 -15z m48 -3 c3 -5 -1 -9 -9 -9 -8 0 -12 4 -9 9 3 4 7 8 9 8 2 0 6 -4 9 -8z m267 -11 c22 -18 24 -28 27 -130 l4 -111 -26 0 -26 0 0 88 c0 95 -12 127 -46 120 -15 -2 -20 -13 -22 -51 -3 -42 -5 -47 -28 -47 -22 0 -24 4 -24 49 0 66 27 101 80 101 22 0 47 -8 61 -19z m129 4 c0 -11 12 -15 44 -15 30 0 46 5 50 15 5 15 56 22 56 8 0 -5 -17 -62 -38 -128 -37 -116 -39 -120 -66 -120 -28 0 -30 3 -66 128 l-38 127 29 0 c19 0 29 -5 29 -15z m260 -29 c0 -44 0 -45 38 -48 32 -3 37 -7 40 -30 3 -27 1 -28 -37 -28 -39 0 -41 -2 -41 -30 0 -30 1 -30 55 -30 52 0 55 -1 55 -25 0 -25 -1 -25 -85 -25 l-85 0 0 130 0 130 30 0 c29 0 30 -2 30 -44z m-993 7 c-4 -3 -10 -3 -14 0 -3 4 0 7 7 7 7 0 10 -3 7 -7z m26 -11 c-6 -24 23 -50 39 -34 8 8 7 16 -3 28 -12 15 -12 17 1 12 20 -6 26 -78 8 -89 -10 -7 -11 -12 -1 -26 7 -10 20 -30 28 -45 14 -25 14 -28 1 -28 -10 0 -13 6 -10 15 8 19 -23 32 -38 17 -9 -9 -8 -18 2 -36 11 -22 20 -25 59 -24 25 1 69 0 96 -1 41 -1 47 -4 32 -12 -65 -38 -140 -28 -193 25 -51 51 -63 115 -34 191 11 29 20 34 13 7z m115 6 c19 -19 15 -48 -8 -48 -11 0 -20 6 -20 14 0 8 -3 21 -6 30 -7 19 16 22 34 4z m59 -35 c-3 -10 -5 -4 -5 12 0 17 2 24 5 18 2 -7 2 -21 0 -30z m137 11 c5 -14 4 -15 -9 -4 -17 14 -19 20 -6 20 5 0 12 -7 15 -16z m-344 -8 c0 -3 -5 -8 -12 -12 -7 -4 -8 -3 -4 4 7 12 16 16 16 8z m-43 -78 c-2 -13 -4 -3 -4 22 0 25 2 35 4 23 2 -13 2 -33 0 -45z m400 55 c-4 -3 -10 -3 -14 0 -3 4 0 7 7 7 7 0 10 -3 7 -7z m20 -45 c-3 -7 -5 -2 -5 12 0 14 2 19 5 13 2 -7 2 -19 0 -25z m-203 -25 c14 -43 14 -46 0 -28 -9 11 -22 32 -30 48 -13 23 -13 27 0 27 8 0 21 -20 30 -47z m43 5 c-3 -7 -5 -2 -5 12 0 14 2 19 5 13 2 -7 2 -19 0 -25z m140 15 c-4 -3 -10 -3 -14 0 -3 4 0 7 7 7 7 0 10 -3 7 -7z m0 -30 c-4 -3 -7 0 -7 7 0 7 3 10 7 7 3 -4 3 -10 0 -14z m-60 0 c-4 -3 -10 -3 -14 0 -3 4 0 7 7 7 7 0 10 -3 7 -7z m-300 -10 c-4 -3 -10 -3 -14 0 -3 4 0 7 7 7 7 0 10 -3 7 -7z m297 -23 c5 -6 4 -16 -4 -25 -12 -14 -15 -13 -37 6 -12 13 -23 27 -23 32 0 10 50 0 64 -13z m-279 -8 c-3 -3 -11 0 -18 7 -9 10 -8 11 6 5 10 -3 15 -9 12 -12z m319 3 c3 -9 0 -15 -9 -15 -9 0 -12 6 -9 15 4 8 7 15 9 15 2 0 5 -7 9 -15z m-164 -16 c0 -6 -4 -7 -10 -4 -5 3 -10 11 -10 16 0 6 5 7 10 4 6 -3 10 -11 10 -16z m-175 -19 c3 -5 4 -10 1 -10 -3 0 -8 5 -11 10 -3 6 -4 10 -1 10 3 0 8 -4 11 -10z m335 -24 c0 -2 -8 -10 -17 -17 -16 -13 -17 -12 -4 4 13 16 21 21 21 13z m-79 -29 c-10 -9 -11 -8 -5 6 3 10 9 15 12 12 3 -3 0 -11 -7 -18z m-196 -7 c3 -5 4 -10 1 -10 -3 0 -8 5 -11 10 -3 6 -4 10 -1 10 3 0 8 -4 11 -10z m75 -11 c0 -6 -4 -7 -10 -4 -5 3 -10 11 -10 16 0 6 5 7 10 4 6 -3 10 -11 10 -16z m84 6 c-4 -8 -11 -12 -16 -9 -6 4 -5 10 3 15 19 12 19 11 13 -6z m-124 1 c0 -3 -5 -8 -12 -12 -7 -4 -8 -3 -4 4 7 12 16 16 16 8z m67 -13 c-4 -3 -7 0 -7 7 0 7 3 10 7 7 3 -4 3 -10 0 -14z m31 -20 c-10 -2 -28 -2 -40 0 -13 2 -5 4 17 4 22 1 32 -1 23 -4z"/>
 <path d="M1169 292 c-14 -6 -14 -12 -4 -47 l12 -40 11 40 c17 59 16 62 -19 47z"/>
 </g>
<g id="layer110" fill="#767096" stroke="none">
 <path d="M10 250 l0 -240 890 0 890 0 0 240 0 240 -890 0 -890 0 0 -240z m563 213 c-13 -2 -33 -2 -45 0 -13 2 -3 4 22 4 25 0 35 -2 23 -4z m50 -9 c-7 -3 -9 -13 -6 -22 4 -14 3 -14 -5 -2 -12 16 -7 30 11 29 9 0 9 -2 0 -5z m-153 -8 c0 -2 -7 -7 -16 -10 -8 -3 -12 -2 -9 4 6 10 25 14 25 6z m47 -13 c-4 -3 -7 0 -7 7 0 7 3 10 7 7 3 -4 3 -10 0 -14z m158 -3 c3 -5 4 -10 1 -10 -3 0 -8 5 -11 10 -3 6 -4 10 -1 10 3 0 8 -4 11 -10z m-245 -3 c0 -2 -12 -14 -27 -28 l-28 -24 24 28 c23 25 31 32 31 24z m99 -14 c16 4 44 2 62 -3 23 -7 37 -6 48 3 14 11 14 10 2 -5 -9 -12 -10 -18 -2 -18 6 0 11 -5 11 -11 0 -7 -30 -10 -94 -7 -81 3 -97 0 -115 -16 -26 -24 -27 -42 -2 -56 25 -13 38 5 19 27 -11 14 -11 16 2 11 20 -6 26 -78 8 -89 -10 -7 -11 -12 -1 -26 7 -10 20 -30 28 -45 13 -24 13 -28 1 -28 -7 0 -13 8 -12 17 1 22 -30 29 -38 8 -3 -9 -1 -24 5 -33 9 -15 28 -18 105 -20 51 -1 96 3 99 8 4 6 2 10 -2 10 -5 0 -17 14 -27 30 l-17 30 50 -19 c33 -12 51 -15 54 -8 2 6 6 3 10 -7 5 -13 2 -17 -12 -14 -23 4 -72 -39 -65 -57 7 -17 -12 -29 -22 -14 -4 8 -3 9 4 5 7 -4 12 -2 12 4 0 8 -10 9 -32 4 -42 -10 -66 -10 -101 -1 -22 6 -27 5 -21 -5 4 -7 4 -10 0 -6 -4 3 -7 8 -5 10 1 1 -14 19 -34 39 -57 57 -70 145 -31 206 12 19 12 23 -4 33 -14 9 -13 10 8 4 23 -6 24 -6 10 12 -14 17 -14 18 2 6 13 -11 20 -11 37 0 16 10 18 15 8 28 -11 13 -10 13 6 1 10 -8 28 -11 46 -8z m176 -3 c3 -5 4 -10 1 -10 -3 0 -8 5 -11 10 -3 6 -4 10 -1 10 3 0 8 -4 11 -10z m-21 -37 c-10 -7 -16 -13 -13 -14 31 -5 42 -9 47 -15 4 -4 -1 -4 -12 0 -15 5 -17 3 -11 -11 20 -49 27 -95 16 -106 -8 -8 -11 -8 -11 1 0 7 -9 12 -20 12 -11 0 -20 -6 -20 -12 0 -9 -4 -8 -10 2 -15 23 -12 32 10 25 14 -5 20 -2 20 9 0 9 5 16 10 16 6 0 10 7 10 15 0 8 -9 15 -20 15 -11 0 -20 -4 -20 -10 0 -5 -4 -10 -10 -10 -5 0 -10 14 -10 30 0 17 4 30 10 30 5 0 12 11 16 24 4 17 11 23 21 19 14 -5 13 -8 -3 -20z m50 -1 c3 -5 -1 -9 -9 -9 -8 0 -12 4 -9 9 3 4 7 8 9 8 2 0 6 -4 9 -8z m267 -11 c22 -18 24 -28 27 -130 l4 -111 -26 0 -26 0 0 88 c0 95 -12 127 -46 120 -15 -2 -20 -13 -22 -51 -3 -42 -5 -47 -28 -47 -22 0 -24 4 -24 49 0 66 27 101 80 101 22 0 47 -8 61 -19z m129 4 c0 -11 12 -15 44 -15 30 0 46 5 50 15 5 15 56 22 56 8 0 -5 -17 -62 -38 -128 -37 -116 -39 -120 -66 -120 -28 0 -30 3 -66 128 l-38 127 29 0 c19 0 29 -5 29 -15z m260 -29 c0 -44 0 -45 38 -48 32 -3 37 -7 40 -30 3 -27 1 -28 -37 -28 -39 0 -41 -2 -41 -30 0 -30 1 -30 55 -30 52 0 55 -1 55 -25 0 -25 -1 -25 -85 -25 l-85 0 0 130 0 130 30 0 c29 0 30 -2 30 -44z m-990 -1 c0 -8 -2 -15 -4 -15 -2 0 -6 7 -10 15 -3 8 -1 15 4 15 6 0 10 -7 10 -15z m138 3 c19 -19 15 -48 -8 -48 -13 0 -20 7 -20 18 0 10 -5 23 -12 30 -9 9 -8 12 8 12 11 0 25 -5 32 -12z m59 -35 c-3 -10 -5 -4 -5 12 0 17 2 24 5 18 2 -7 2 -21 0 -30z m-240 10 c-4 -3 -7 0 -7 7 0 7 3 10 7 7 3 -4 3 -10 0 -14z m377 2 c3 -8 1 -15 -3 -15 -5 0 -11 7 -15 15 -3 8 -1 15 3 15 5 0 11 -7 15 -15z m23 -2 c-4 -3 -7 0 -7 7 0 7 3 10 7 7 3 -4 3 -10 0 -14z m-370 -18 c0 -8 -4 -12 -9 -9 -5 3 -6 10 -3 15 9 13 12 11 12 -6z m-40 -67 c-2 -13 -4 -3 -4 22 0 25 2 35 4 23 2 -13 2 -33 0 -45z m400 55 c-4 -3 -10 -3 -14 0 -3 4 0 7 7 7 7 0 10 -3 7 -7z m20 -40 c-3 -10 -5 -2 -5 17 0 19 2 27 5 18 2 -10 2 -26 0 -35z m-20 20 c-4 -3 -10 -3 -14 0 -3 4 0 7 7 7 7 0 10 -3 7 -7z m-189 -30 c5 -16 13 -37 17 -48 l7 -20 -17 20 c-9 11 -23 32 -31 48 -13 23 -13 27 0 27 8 0 19 -12 24 -27z m49 -10 c-3 -10 -5 -4 -5 12 0 17 2 24 5 18 2 -7 2 -21 0 -30z m-230 10 c-4 -3 -10 -3 -14 0 -3 4 0 7 7 7 7 0 10 -3 7 -7z m370 0 c-4 -3 -10 -3 -14 0 -3 4 0 7 7 7 7 0 10 -3 7 -7z m-362 -42 c-6 -5 -25 10 -25 20 0 5 6 4 14 -3 8 -7 12 -15 11 -17z m305 19 c0 -5 -5 -10 -11 -10 -5 0 -7 5 -4 10 3 6 8 10 11 10 2 0 4 -4 4 -10z m57 -7 c-4 -3 -7 0 -7 7 0 7 3 10 7 7 3 -4 3 -10 0 -14z m-13 -9 c3 -8 2 -12 -4 -9 -6 3 -10 10 -10 16 0 14 7 11 14 -7z m-377 -21 c-4 -3 -7 0 -7 7 0 7 3 10 7 7 3 -4 3 -10 0 -14z m202 -28 c0 -5 -6 -1 -14 9 -8 11 -15 24 -15 30 0 5 7 1 15 -10 8 -10 14 -23 14 -29z m198 28 c-4 -3 -7 0 -7 7 0 7 3 10 7 7 3 -4 3 -10 0 -14z m-359 -2 c11 -7 10 -9 -3 -14 -9 -4 -14 -3 -10 2 3 5 -1 12 -7 14 -7 3 -8 6 -3 6 6 0 16 -3 23 -8z m-13 -41 c3 -5 4 -10 1 -10 -3 0 -8 5 -11 10 -3 6 -4 10 -1 10 3 0 8 -4 11 -10z m335 -23 c0 -2 -10 -12 -22 -23 l-23 -19 19 23 c18 21 26 27 26 19z m-305 -17 c3 -5 4 -10 1 -10 -3 0 -8 5 -11 10 -3 6 -4 10 -1 10 3 0 8 -4 11 -10z m30 -20 c3 -5 4 -10 1 -10 -3 0 -8 5 -11 10 -3 6 -4 10 -1 10 3 0 8 -4 11 -10z m75 -11 c0 -6 -4 -7 -10 -4 -5 3 -10 11 -10 16 0 6 5 7 10 4 6 -3 10 -11 10 -16z m84 6 c-4 -8 -11 -12 -16 -9 -6 4 -5 10 3 15 19 12 19 11 13 -6z m-124 1 c0 -3 -5 -8 -12 -12 -7 -4 -8 -3 -4 4 7 12 16 16 16 8z m67 -13 c-4 -3 -7 0 -7 7 0 7 3 10 7 7 3 -4 3 -10 0 -14z m-50 -10 c-4 -3 -10 -3 -14 0 -3 4 0 7 7 7 7 0 10 -3 7 -7z m86 -10 c-13 -2 -33 -2 -45 0 -13 2 -3 4 22 4 25 0 35 -2 23 -4z"/>
 <path d="M1169 292 c-14 -6 -14 -12 -4 -47 l12 -40 11 40 c17 59 16 62 -19 47z"/>
 </g>
<g id="layer111" fill="#8580a2" stroke="none">
 <path d="M10 250 l0 -240 890 0 890 0 0 240 0 240 -890 0 -890 0 0 -240z m573 213 c-13 -2 -35 -2 -50 0 -16 2 -5 4 22 4 28 0 40 -2 28 -4z m-73 -13 c8 -5 12 -11 10 -14 -3 -2 -14 2 -24 10 -22 15 -10 19 14 4z m113 4 c-7 -3 -9 -13 -6 -22 4 -14 3 -14 -5 -2 -12 16 -7 30 11 29 9 0 9 -2 0 -5z m-153 -8 c0 -2 -7 -7 -16 -10 -8 -3 -12 -2 -9 4 6 10 25 14 25 6z m205 -16 c3 -5 4 -10 1 -10 -3 0 -8 5 -11 10 -3 6 -4 10 -1 10 3 0 8 -4 11 -10z m-245 -3 c0 -2 -12 -14 -27 -28 l-28 -24 24 28 c23 25 31 32 31 24z m55 -17 c-3 -4 12 -4 34 1 22 5 52 5 71 -1 24 -7 38 -6 49 3 14 11 14 10 2 -5 -9 -12 -10 -18 -2 -18 6 0 11 -5 11 -11 0 -7 -30 -10 -95 -7 -85 3 -97 1 -115 -18 -24 -24 -18 -54 11 -54 22 0 24 10 7 29 -11 11 -10 13 2 9 20 -6 26 -78 8 -89 -10 -7 -11 -12 -1 -26 7 -10 20 -30 28 -45 14 -25 14 -28 1 -28 -9 0 -13 6 -10 14 7 19 -14 30 -31 16 -10 -9 -11 -17 -4 -34 10 -20 18 -22 105 -24 52 -1 94 1 94 5 0 3 -9 21 -21 40 l-21 34 51 -20 51 -19 -6 26 -6 27 16 -29 c20 -36 20 -39 -3 -33 -13 3 -29 -5 -45 -22 -25 -26 -25 -28 -9 -51 16 -24 16 -25 -2 -10 -17 14 -18 13 -12 -2 9 -25 0 -22 -14 3 -8 15 -8 19 0 15 6 -4 11 -3 11 3 0 7 -12 8 -32 4 -42 -9 -66 -9 -101 0 -22 6 -27 5 -21 -5 4 -7 4 -10 0 -6 -4 3 -6 8 -4 11 1 2 -11 16 -29 31 -60 51 -78 150 -37 213 12 20 12 23 -4 33 -14 9 -13 10 8 4 23 -6 24 -6 10 12 -14 18 -14 18 4 4 16 -13 20 -12 32 4 7 11 11 23 7 29 -3 6 -1 7 6 3 6 -4 9 -11 6 -16z m226 -7 c13 -16 12 -17 -3 -4 -10 7 -18 15 -18 17 0 8 8 3 21 -13z m-16 -23 c-3 -4 2 -16 11 -24 8 -9 10 -16 4 -16 -6 0 -13 7 -16 15 -4 8 -10 15 -15 15 -4 0 0 -15 11 -32 19 -33 38 -118 26 -118 -3 0 -15 6 -26 13 -17 10 -22 9 -30 -3 -5 -8 -10 -12 -10 -8 0 3 -3 14 -7 23 -5 14 -2 16 15 10 16 -5 22 -2 22 9 0 9 5 16 10 16 6 0 10 7 10 15 0 17 -25 20 -35 5 -12 -19 -25 -10 -25 19 0 16 7 34 16 42 8 7 13 21 11 31 -4 15 -2 16 14 7 11 -5 17 -14 14 -19z m39 -8 c3 -5 -1 -9 -9 -9 -8 0 -12 4 -9 9 3 4 7 8 9 8 2 0 6 -4 9 -8z m267 -11 c22 -18 24 -28 27 -130 l4 -111 -26 0 -26 0 0 88 c0 95 -12 127 -46 120 -15 -2 -20 -13 -22 -51 -3 -42 -5 -47 -28 -47 -22 0 -24 4 -24 49 0 66 27 101 80 101 22 0 47 -8 61 -19z m129 4 c0 -11 12 -15 44 -15 30 0 46 5 50 15 5 15 56 22 56 8 0 -5 -17 -62 -38 -128 -37 -116 -39 -120 -66 -120 -28 0 -30 3 -66 128 l-38 127 29 0 c19 0 29 -5 29 -15z m260 -29 c0 -44 0 -45 38 -48 32 -3 37 -7 40 -30 3 -27 1 -28 -37 -28 -39 0 -41 -2 -41 -30 0 -30 1 -30 55 -30 52 0 55 -1 55 -25 0 -25 -1 -25 -85 -25 l-85 0 0 130 0 130 30 0 c29 0 30 -2 30 -44z m-990 -2 c0 -8 -4 -12 -10 -9 -5 3 -10 10 -10 16 0 5 5 9 10 9 6 0 10 -7 10 -16z m144 0 c11 -29 6 -44 -14 -44 -13 0 -20 7 -20 18 0 10 -5 23 -12 30 -9 9 -6 12 14 12 14 0 29 -7 32 -16z m53 -31 c-3 -10 -5 -4 -5 12 0 17 2 24 5 18 2 -7 2 -21 0 -30z m-240 10 c-4 -3 -7 0 -7 7 0 7 3 10 7 7 3 -4 3 -10 0 -14z m377 2 c3 -8 1 -15 -3 -15 -5 0 -11 7 -15 15 -3 8 -1 15 3 15 5 0 11 -7 15 -15z m23 -2 c-4 -3 -7 0 -7 7 0 7 3 10 7 7 3 -4 3 -10 0 -14z m-367 -18 c0 -9 -6 -12 -15 -9 -8 4 -12 10 -9 15 8 14 24 10 24 -6z m-43 -62 c-2 -16 -4 -5 -4 22 0 28 2 40 4 28 2 -13 2 -35 0 -50z m393 47 c-12 -8 -12 -10 -1 -10 8 0 12 -3 8 -6 -9 -9 -28 6 -22 17 4 5 12 9 18 9 7 0 6 -4 -3 -10z m27 -52 c-2 -13 -4 -3 -4 22 0 25 2 35 4 23 2 -13 2 -33 0 -45z m-201 -13 c17 -48 17 -48 4 -40 -6 4 -20 24 -31 47 -18 35 -18 39 -4 36 9 -1 23 -21 31 -43z m41 8 c-3 -10 -5 -4 -5 12 0 17 2 24 5 18 2 -7 2 -21 0 -30z m-230 10 c-4 -3 -10 -3 -14 0 -3 4 0 7 7 7 7 0 10 -3 7 -7z m370 0 c-4 -3 -10 -3 -14 0 -3 4 0 7 7 7 7 0 10 -3 7 -7z m-357 -49 c-1 -4 4 -10 10 -14 8 -5 7 -9 -5 -13 -9 -4 -13 -3 -10 3 3 6 0 10 -7 10 -11 0 -10 2 0 9 11 7 11 9 -2 14 -9 4 -16 11 -16 17 0 7 7 5 15 -4 9 -8 15 -18 15 -22z m300 26 c0 -5 -8 -10 -17 -10 -15 0 -16 2 -3 10 19 12 20 12 20 0z m52 -7 c-6 -3 -9 -10 -6 -16 4 -7 1 -7 -7 1 -12 11 -12 14 1 22 8 5 17 6 20 3 3 -3 -1 -8 -8 -10z m-385 -30 c-4 -3 -7 0 -7 7 0 7 3 10 7 7 3 -4 3 -10 0 -14z m203 -27 c0 -6 -7 -2 -15 8 -8 11 -15 25 -15 30 0 6 7 2 15 -8 8 -11 15 -25 15 -30z m197 27 c-4 -3 -7 0 -7 7 0 7 3 10 7 7 3 -4 3 -10 0 -14z m-372 -43 c3 -5 4 -10 1 -10 -3 0 -8 5 -11 10 -3 6 -4 10 -1 10 3 0 8 -4 11 -10z m346 -8 c-5 -9 -19 -26 -32 -37 -17 -15 -15 -10 7 17 32 41 40 48 25 20z m-316 -32 c3 -5 4 -10 1 -10 -3 0 -8 5 -11 10 -3 6 -4 10 -1 10 3 0 8 -4 11 -10z m30 -20 c3 -5 4 -10 1 -10 -3 0 -8 5 -11 10 -3 6 -4 10 -1 10 3 0 8 -4 11 -10z m78 -7 c-3 -7 -9 -10 -14 -7 -14 8 -11 21 5 21 8 0 12 -6 9 -14z m81 2 c-4 -8 -11 -12 -16 -9 -6 4 -5 10 3 15 19 12 19 11 13 -6z m-124 1 c0 -3 -5 -8 -12 -12 -7 -4 -8 -3 -4 4 7 12 16 16 16 8z m67 -13 c-4 -3 -7 0 -7 7 0 7 3 10 7 7 3 -4 3 -10 0 -14z m-50 -10 c-4 -3 -10 -3 -14 0 -3 4 0 7 7 7 7 0 10 -3 7 -7z m130 0 c-4 -3 -10 -3 -14 0 -3 4 0 7 7 7 7 0 10 -3 7 -7z m-44 -10 c-13 -2 -35 -2 -50 0 -16 2 -5 4 22 4 28 0 40 -2 28 -4z"/>
 <path d="M1169 292 c-14 -6 -14 -12 -4 -47 l12 -40 11 40 c17 59 16 62 -19 47z"/>
 </g>
<g id="layer112" fill="#9490ae" stroke="none">
 <path d="M10 250 l0 -240 890 0 890 0 0 240 0 240 -890 0 -890 0 0 -240z m573 213 c-13 -2 -35 -2 -50 0 -16 2 -5 4 22 4 28 0 40 -2 28 -4z m-79 -9 c9 -3 16 -11 16 -17 0 -7 -4 -7 -12 1 -20 20 -40 15 -29 -7 6 -10 8 -21 4 -24 -3 -3 12 -1 32 4 25 7 51 7 76 1 26 -7 41 -6 50 2 9 8 11 7 6 -5 -3 -9 0 -22 6 -28 8 -8 -17 -11 -94 -11 -90 0 -108 -3 -123 -19 -20 -22 -11 -51 15 -51 22 0 24 10 7 29 -11 11 -10 13 2 9 20 -6 29 -47 17 -81 -8 -23 -5 -37 12 -68 18 -32 20 -39 7 -39 -9 0 -13 6 -10 14 7 18 -14 32 -28 18 -6 -6 -8 -21 -5 -34 6 -22 10 -23 102 -24 52 0 95 3 95 7 0 3 -9 18 -20 32 -29 37 -25 39 30 18 l50 -19 -6 26 c-10 46 -13 52 -29 52 -8 0 -15 -6 -15 -12 0 -9 -4 -8 -10 2 -15 23 -12 32 10 25 14 -5 20 -2 20 9 0 9 5 16 10 16 6 0 10 7 10 15 0 18 -21 20 -38 3 -10 -10 -15 -10 -22 2 -13 21 -13 25 9 51 l19 23 21 -34 c11 -19 21 -41 21 -47 0 -7 5 -13 10 -13 7 0 7 7 0 21 -13 23 -8 35 10 24 6 -4 9 -13 6 -21 -3 -8 0 -14 7 -15 8 0 7 -2 -2 -6 -11 -5 -11 -7 0 -15 11 -8 10 -9 -2 -5 -13 4 -18 -4 -23 -35 -4 -22 -4 -43 -1 -46 3 -3 5 2 5 10 0 9 7 18 15 22 8 3 15 1 15 -4 0 -6 -5 -10 -11 -10 -5 0 -7 -4 -4 -10 3 -5 2 -10 -4 -10 -6 0 -8 -7 -4 -17 5 -13 2 -15 -15 -11 -14 4 -29 -3 -48 -23 -43 -45 -105 -57 -168 -33 -11 4 -15 2 -11 -8 3 -8 -2 -21 -12 -29 -16 -13 -17 -12 -5 2 17 22 12 39 -17 63 -28 23 -60 91 -61 128 0 15 -7 31 -16 36 -13 7 -14 11 -4 17 7 4 16 2 20 -5 5 -8 9 -4 13 11 4 13 4 25 2 28 -3 2 -5 -1 -5 -8 0 -7 -4 -9 -10 -6 -18 11 -11 27 10 22 26 -7 35 9 13 23 -15 9 -14 10 7 4 22 -6 23 -5 12 9 -16 19 4 35 21 18 9 -9 7 -11 -8 -6 -16 5 -17 5 -5 -3 19 -14 30 -6 30 25 0 20 -4 24 -17 19 -15 -5 -15 -4 1 9 22 17 27 18 50 9z m119 0 c-7 -3 -9 -12 -6 -20 3 -8 1 -14 -5 -14 -8 0 -9 16 -3 38 1 1 7 2 14 1 9 0 9 -2 0 -5z m51 -38 c-3 -7 2 -16 11 -20 9 -3 13 -10 10 -16 -3 -5 1 -10 11 -10 15 0 15 2 0 25 -9 14 -14 25 -11 25 8 0 65 -92 65 -104 -1 -6 -9 5 -20 24 -12 22 -19 28 -20 18 0 -24 -7 -23 -40 9 -22 20 -26 31 -20 44 5 9 6 20 2 24 -4 5 -2 5 5 1 7 -4 10 -13 7 -20z m-261 -8 c-11 -13 -27 -34 -36 -48 -10 -13 -17 -20 -17 -15 0 12 58 85 67 85 4 0 -3 -10 -14 -22z m588 -47 c22 -18 24 -28 27 -130 l4 -111 -26 0 -26 0 0 88 c0 95 -12 127 -46 120 -15 -2 -20 -13 -22 -51 -3 -42 -5 -47 -28 -47 -22 0 -24 4 -24 49 0 66 27 101 80 101 22 0 47 -8 61 -19z m129 4 c0 -11 12 -15 44 -15 30 0 46 5 50 15 5 15 56 22 56 8 0 -5 -17 -62 -38 -128 -37 -116 -39 -120 -66 -120 -28 0 -30 3 -66 128 l-38 127 29 0 c19 0 29 -5 29 -15z m260 -29 c0 -44 0 -45 38 -48 32 -3 37 -7 40 -30 3 -27 1 -28 -37 -28 -39 0 -41 -2 -41 -30 0 -30 1 -30 55 -30 52 0 55 -1 55 -25 0 -25 -1 -25 -85 -25 l-85 0 0 130 0 130 30 0 c29 0 30 -2 30 -44z m-846 -2 c11 -28 6 -44 -12 -44 -10 0 -22 12 -29 30 -10 28 -10 30 12 30 12 0 26 -7 29 -16z m53 -31 c-3 -10 -5 -4 -5 12 0 17 2 24 5 18 2 -7 2 -21 0 -30z m-240 10 c-4 -3 -7 0 -7 7 0 7 3 10 7 7 3 -4 3 -10 0 -14z m-10 -90 c-2 -16 -4 -3 -4 27 0 30 2 43 4 28 2 -16 2 -40 0 -55z m422 25 c-1 -29 -4 -43 -6 -31 -3 15 -9 20 -21 17 -15 -5 -15 -4 1 6 9 6 17 22 17 35 0 14 2 25 5 25 3 0 4 -24 4 -52z m-392 15 c-4 -3 -10 -3 -14 0 -3 4 0 7 7 7 7 0 10 -3 7 -7z m189 -49 c7 -21 11 -40 9 -42 -5 -6 -55 71 -55 86 0 26 33 -5 46 -44z m41 9 c-3 -10 -5 -4 -5 12 0 17 2 24 5 18 2 -7 2 -21 0 -30z m-230 10 c-4 -3 -10 -3 -14 0 -3 4 0 7 7 7 7 0 10 -3 7 -7z m4 -22 c7 11 9 9 10 -6 1 -11 1 -23 0 -27 0 -5 5 -8 12 -8 7 -1 4 -6 -7 -15 -10 -7 -15 -18 -11 -24 3 -6 4 -11 1 -11 -9 0 -38 61 -32 68 3 3 6 0 6 -6 0 -6 7 -9 16 -5 15 5 15 7 0 15 -9 5 -16 14 -15 21 0 8 3 7 6 -2 5 -11 7 -11 14 0z m309 -1 c0 -5 -8 -10 -17 -10 -15 0 -16 2 -3 10 19 12 20 12 20 0z m-130 -64 c0 -6 -7 -2 -15 8 -8 11 -15 25 -15 30 0 6 7 2 15 -8 8 -11 15 -25 15 -30z m197 27 c-4 -3 -7 0 -7 7 0 7 3 10 7 7 3 -4 3 -10 0 -14z m-26 -52 c-20 -28 -71 -71 -85 -71 -3 0 -10 10 -17 21 -8 15 -8 19 0 15 6 -4 11 -1 11 6 1 8 6 6 15 -6 14 -18 16 -18 50 18 19 21 35 42 35 48 0 6 3 9 6 5 3 -3 -3 -19 -15 -36z m-320 -28 c13 -16 12 -17 -3 -4 -17 13 -22 21 -14 21 2 0 10 -8 17 -17z m34 -23 c3 -5 4 -10 1 -10 -3 0 -8 5 -11 10 -3 6 -4 10 -1 10 3 0 8 -4 11 -10z m83 -2 c-2 -5 -8 -9 -13 -9 -5 0 -11 4 -13 9 -1 5 4 9 13 9 9 0 14 -4 13 -9z m77 -7 c-3 -6 -11 -8 -17 -5 -6 4 -5 9 3 15 16 10 23 4 14 -10z m-41 1 c3 -5 -1 -9 -9 -9 -8 0 -15 4 -15 9 0 4 4 8 9 8 6 0 12 -4 15 -8z m-67 -19 c-4 -3 -10 -3 -14 0 -3 4 0 7 7 7 7 0 10 -3 7 -7z m103 -9 c0 -2 -21 -4 -47 -3 -37 1 -42 3 -23 8 24 7 70 3 70 -5z m27 9 c-4 -3 -10 -3 -14 0 -3 4 0 7 7 7 7 0 10 -3 7 -7z"/>
 <path d="M1169 292 c-14 -6 -14 -12 -4 -47 l12 -40 11 40 c17 59 16 62 -19 47z"/>
 <path d="M370 159 c0 -5 5 -7 10 -4 6 3 10 8 10 11 0 2 -4 4 -10 4 -5 0 -10 -5 -10 -11z"/>
 <path d="M643 63 c4 -3 10 -3 14 0 3 4 0 7 -7 7 -7 0 -10 -3 -7 -7z"/>
 </g>
<g id="layer113" fill="#a39fb9" stroke="none">
 <path d="M10 250 l0 -240 890 0 890 0 0 240 0 240 -890 0 -890 0 0 -240z m540 210 c-30 -4 -49 -7 -42 -8 6 -1 12 -7 12 -14 0 -9 -3 -9 -12 0 -20 20 -40 15 -29 -7 6 -10 7 -21 4 -25 -4 -3 8 -1 26 5 17 6 45 9 61 7 23 -4 30 0 32 16 2 10 10 21 18 23 9 3 11 1 5 -4 -9 -7 -10 -17 -6 -47 0 -5 9 -2 18 5 15 12 16 12 11 -2 -4 -9 -1 -22 5 -28 8 -8 -17 -11 -94 -11 -90 0 -108 -3 -123 -19 -20 -22 -11 -51 15 -51 24 0 25 16 2 29 -17 10 -17 10 0 11 26 0 41 -47 26 -82 -9 -23 -8 -33 10 -63 25 -43 25 -45 5 -45 -10 0 -14 6 -11 15 4 8 1 17 -4 21 -17 10 -32 -12 -26 -38 6 -22 10 -23 102 -24 52 0 95 2 95 5 0 3 -9 17 -20 31 -11 14 -20 28 -20 32 0 8 49 -5 79 -21 20 -11 21 -10 15 16 -3 15 -7 34 -10 41 -5 18 -34 15 -34 -4 0 -10 6 -14 15 -10 8 3 15 1 15 -4 0 -18 -29 -11 -40 9 -15 29 -12 44 8 39 12 -3 22 3 29 18 14 30 -2 42 -26 20 -18 -16 -19 -15 -25 10 -5 18 -2 32 10 45 16 18 19 18 35 3 10 -9 21 -29 24 -45 4 -16 10 -29 15 -29 4 0 3 -21 -1 -47 -5 -25 -7 -49 -4 -51 3 -3 5 2 5 10 0 9 7 18 15 22 8 3 15 1 15 -4 0 -6 -5 -10 -11 -10 -5 0 -7 -5 -4 -10 3 -5 2 -10 -4 -10 -6 0 -8 -7 -4 -16 4 -12 1 -15 -14 -12 -12 2 -35 -11 -57 -30 -20 -17 -43 -32 -51 -32 -8 0 -15 -5 -15 -11 0 -5 5 -7 10 -4 6 3 10 2 10 -4 0 -18 -20 -23 -26 -7 -8 22 -40 20 -64 -4 -11 -11 -26 -20 -32 -19 -10 0 -10 2 0 6 6 2 12 11 12 18 0 7 6 15 12 17 7 3 3 7 -9 10 -15 4 -20 2 -17 -7 3 -6 -3 -18 -13 -26 -17 -13 -17 -13 -4 4 13 16 13 20 0 28 -8 5 -10 9 -5 9 4 0 -6 16 -23 35 -17 20 -34 47 -37 61 -4 14 -16 29 -28 34 -17 7 -18 9 -3 9 22 1 23 37 1 49 -13 7 -14 11 -4 17 7 4 15 3 19 -3 4 -7 12 2 19 21 10 27 9 29 -2 15 -7 -10 -16 -15 -19 -11 -12 12 -7 21 16 27 19 5 20 8 7 17 -12 8 -9 9 10 3 22 -6 23 -5 12 9 -17 20 3 34 23 17 13 -10 15 -8 13 14 -1 14 -4 26 -6 26 -13 0 -58 -40 -78 -69 -13 -20 -24 -31 -24 -26 0 22 66 89 104 106 25 11 61 18 91 17 l50 -1 -55 -7z m194 -112 c19 -37 26 -66 25 -102 -1 -28 -4 -41 -6 -29 -3 15 -9 20 -21 17 -15 -5 -15 -4 1 6 9 6 17 21 17 33 -1 27 -38 109 -39 85 -1 -24 -8 -23 -41 9 -22 20 -26 31 -20 44 5 9 6 20 2 24 -4 5 7 -1 25 -13 17 -12 43 -45 57 -74z m257 13 c22 -18 24 -28 27 -130 l4 -111 -26 0 -26 0 0 88 c0 95 -12 127 -46 120 -15 -2 -20 -13 -22 -51 -3 -42 -5 -47 -28 -47 -22 0 -24 4 -24 49 0 66 27 101 80 101 22 0 47 -8 61 -19z m129 4 c0 -11 12 -15 44 -15 30 0 46 5 50 15 5 15 56 22 56 8 0 -5 -17 -62 -38 -128 -37 -116 -39 -120 -66 -120 -28 0 -30 3 -66 128 l-38 127 29 0 c19 0 29 -5 29 -15z m260 -29 c0 -44 0 -45 38 -48 32 -3 37 -7 40 -30 3 -27 1 -28 -37 -28 -39 0 -41 -2 -41 -30 0 -30 1 -30 55 -30 52 0 55 -1 55 -25 0 -25 -1 -25 -85 -25 l-85 0 0 130 0 130 30 0 c29 0 30 -2 30 -44z m-846 -2 c11 -28 6 -44 -12 -44 -10 0 -22 12 -29 30 -10 28 -10 30 12 30 12 0 26 -7 29 -16z m53 -31 c-3 -10 -5 -4 -5 12 0 17 2 24 5 18 2 -7 2 -21 0 -30z m-240 10 c-4 -3 -7 0 -7 7 0 7 3 10 7 7 3 -4 3 -10 0 -14z m377 -7 c-1 -9 2 -16 7 -16 5 0 9 -7 9 -15 0 -8 -5 -15 -12 -15 -6 0 -8 3 -5 6 3 4 0 16 -8 28 -18 25 -19 39 -2 33 6 -2 11 -12 11 -21z m-376 -98 c1 6 9 12 17 12 13 0 17 -12 14 -36 0 -4 5 -10 12 -15 11 -6 10 -9 -4 -15 -25 -9 -21 -19 21 -60 35 -35 35 -36 5 -16 -46 32 -83 114 -81 176 l1 51 7 -55 c4 -30 7 -49 8 -42z m22 58 c0 -3 -4 -8 -10 -11 -5 -3 -10 -1 -10 4 0 6 5 11 10 11 6 0 10 -2 10 -4z m190 -60 c10 -25 16 -46 14 -46 -9 0 -64 84 -64 97 0 29 33 -5 50 -51z m40 29 c0 -14 -2 -25 -4 -25 -2 0 -6 11 -8 25 -3 14 -1 25 3 25 5 0 9 -11 9 -25z m-47 -95 c-6 -6 -33 30 -33 44 0 6 9 0 20 -14 10 -14 16 -27 13 -30z m194 33 c-4 -3 -7 0 -7 7 0 7 3 10 7 7 3 -4 3 -10 0 -14z m-34 -60 c-41 -52 -104 -83 -166 -83 -28 0 -48 3 -45 6 3 3 21 5 39 5 19 0 46 3 61 5 25 5 27 8 17 26 -8 15 -8 19 0 14 6 -4 11 -1 11 6 1 8 6 6 15 -6 14 -18 16 -18 50 18 19 21 35 42 35 48 0 6 3 8 7 5 3 -4 -7 -24 -24 -44z m-159 -51 c3 -5 -1 -9 -9 -9 -8 0 -15 4 -15 9 0 4 4 8 9 8 6 0 12 -4 15 -8z"/>
 <path d="M433 393 c4 -3 10 -3 14 0 3 4 0 7 -7 7 -7 0 -10 -3 -7 -7z"/>
 <path d="M667 406 c-3 -8 1 -13 11 -12 9 0 16 -5 15 -11 -2 -7 4 -13 12 -13 12 0 13 4 6 19 -13 24 -38 33 -44 17z"/>
 <path d="M1169 292 c-14 -6 -14 -12 -4 -47 l12 -40 11 40 c17 59 16 62 -19 47z"/>
 <path d="M364 196 c-8 -20 11 -53 20 -37 4 6 1 11 -6 11 -9 0 -9 3 2 10 11 7 11 10 2 10 -7 0 -10 5 -7 10 3 6 4 10 0 10 -3 0 -8 -6 -11 -14z"/>
 <path d="M643 63 c4 -3 10 -3 14 0 3 4 0 7 -7 7 -7 0 -10 -3 -7 -7z"/>
 </g>
<g id="layer114" fill="#bebebf" stroke="none">
 <path d="M10 250 l0 -240 890 0 890 0 0 240 0 240 -890 0 -890 0 0 -240z m662 184 c26 -18 53 -50 71 -84 25 -48 28 -63 24 -118 -6 -75 -37 -128 -99 -169 -36 -24 -52 -28 -113 -28 -61 0 -77 4 -113 27 -109 73 -133 231 -50 332 45 55 98 77 175 73 50 -2 71 -9 105 -33z m329 -73 c22 -18 24 -28 27 -130 l4 -111 -26 0 -26 0 0 88 c0 95 -12 127 -46 120 -15 -2 -20 -13 -22 -51 -3 -42 -5 -47 -28 -47 -22 0 -24 4 -24 49 0 66 27 101 80 101 22 0 47 -8 61 -19z m129 4 c0 -11 12 -15 44 -15 30 0 46 5 50 15 3 8 17 15 32 15 23 0 25 -3 20 -22 -4 -13 -13 -45 -21 -73 -36 -129 -51 -160 -78 -163 -32 -4 -33 -2 -75 151 l-30 107 29 0 c19 0 29 -5 29 -15z m260 -29 c0 -44 0 -45 38 -48 32 -3 37 -7 40 -30 3 -27 1 -28 -37 -28 -39 0 -41 -2 -41 -30 0 -30 1 -30 55 -30 52 0 55 -1 55 -25 0 -25 -1 -25 -85 -25 l-85 0 0 130 0 130 30 0 c29 0 30 -2 30 -44z"/>
 <path d="M508 453 c6 -2 12 -12 12 -20 0 -14 -3 -14 -20 2 -18 17 -21 16 -55 -5 -115 -71 -127 -242 -24 -335 39 -35 41 -36 56 -18 14 17 14 17 8 -1 -6 -21 9 -36 38 -36 11 0 17 8 17 23 -1 20 -2 20 -11 5 -5 -10 -14 -18 -19 -18 -15 0 -12 28 3 33 12 6 -17 11 -42 8 -7 -2 -10 2 -7 7 10 16 -49 63 -70 56 -18 -5 -18 -5 1 11 20 17 20 17 -2 11 -18 -6 -21 -4 -18 14 2 11 0 18 -6 15 -5 -4 -9 -1 -9 4 0 6 8 11 18 12 14 0 14 2 -3 9 -17 7 -17 9 -2 9 22 1 23 37 1 49 -13 7 -14 11 -4 17 7 4 16 2 20 -5 5 -8 10 -2 15 17 13 46 14 53 4 53 -5 0 -9 5 -9 10 0 7 6 7 18 1 14 -7 19 -6 19 4 0 8 -5 11 -11 8 -6 -3 -6 0 1 7 10 11 15 11 29 -1 16 -13 17 -12 12 8 -4 13 -2 26 3 29 8 5 13 -10 10 -29 -1 -5 3 -5 9 -2 6 4 32 10 58 14 33 4 48 11 50 24 3 14 -4 17 -50 16 -29 0 -47 -3 -40 -6z m-104 -118 c-4 -8 -10 -12 -15 -9 -14 8 -10 24 6 24 9 0 12 -6 9 -15z m-24 -69 c0 -3 -4 -8 -10 -11 -5 -3 -10 -1 -10 4 0 6 5 11 10 11 6 0 10 -2 10 -4z"/>
 <path d="M617 430 c-6 -25 3 -33 21 -17 13 10 15 9 9 -5 -3 -10 -1 -21 6 -25 7 -4 -37 -10 -97 -13 -94 -4 -110 -8 -122 -25 -17 -26 -3 -51 22 -41 18 7 18 8 0 22 -18 12 -18 14 -3 14 26 0 41 -47 26 -82 -9 -23 -8 -33 10 -63 25 -43 25 -45 5 -45 -10 0 -14 6 -11 15 4 8 1 17 -4 21 -17 10 -32 -12 -26 -38 6 -22 10 -23 102 -23 52 0 95 1 95 3 0 1 -11 19 -24 40 -27 43 -41 92 -26 92 5 0 11 -9 11 -20 1 -11 2 -25 3 -31 0 -6 18 -17 39 -24 41 -14 53 -6 45 32 -4 23 -38 30 -38 8 0 -11 5 -15 15 -11 8 3 15 1 15 -4 0 -18 -29 -11 -40 9 -15 29 -12 44 8 39 12 -3 22 3 29 18 14 31 -4 45 -23 19 -16 -21 -20 -19 -29 15 -4 19 -1 31 13 43 19 17 21 17 40 -8 12 -15 23 -21 27 -15 3 5 1 10 -5 10 -6 0 -8 5 -4 12 4 7 3 8 -4 4 -7 -4 -12 -2 -12 3 0 24 26 9 37 -20 13 -34 7 -61 -8 -38 -6 10 -9 10 -9 2 0 -6 4 -14 9 -17 5 -3 7 -15 4 -26 -6 -22 20 -29 32 -9 10 16 -3 70 -25 107 -17 28 -23 32 -36 21 -11 -9 -18 -9 -26 -1 -8 8 -7 13 5 18 21 8 14 20 -23 39 -26 13 -28 13 -33 -5z m44 -33 c-10 -9 -11 -8 -5 6 3 10 9 15 12 12 3 -3 0 -11 -7 -18z m-117 -63 c11 -28 6 -44 -12 -44 -10 0 -22 12 -29 30 -10 28 -10 30 12 30 12 0 26 -7 29 -16z m53 -31 c-3 -10 -5 -4 -5 12 0 17 2 24 5 18 2 -7 2 -21 0 -30z m153 -28 c0 -8 -4 -15 -8 -15 -5 0 -9 7 -9 15 0 8 4 15 9 15 4 0 8 -7 8 -15z m-179 -66 c8 -27 14 -49 12 -49 -7 0 -63 84 -63 96 0 7 8 10 18 7 10 -2 23 -24 33 -54z m-11 -67 c-14 -5 -16 -3 -24 28 l-7 25 21 -25 c14 -15 18 -26 10 -28z"/>
 <path d="M740 232 c-8 -1 -26 -26 -40 -54 -19 -40 -35 -57 -67 -72 -23 -12 -42 -25 -43 -29 0 -5 5 -5 10 -2 6 3 10 2 10 -4 0 -18 -20 -23 -26 -7 -3 9 -13 16 -21 16 -13 0 -13 -2 -2 -17 12 -14 12 -16 0 -8 -10 5 -12 4 -7 -3 19 -30 121 9 160 62 24 32 50 100 44 114 -2 4 -10 6 -18 4z m2 -29 c-6 -3 -10 -9 -6 -14 3 -5 1 -9 -5 -9 -6 0 -8 -7 -5 -15 4 -9 0 -15 -10 -15 -13 0 -14 4 -3 28 13 29 28 44 37 35 3 -3 -1 -8 -8 -10z m-82 -123 c0 -15 -28 -19 -34 -4 -3 9 -1 12 4 9 6 -3 10 -1 10 5 0 6 5 8 10 5 6 -3 10 -10 10 -15z"/>
 <path d="M1169 293 c-14 -3 -15 -10 -6 -44 l10 -41 13 39 c20 56 20 56 -17 46z"/>
 </g>
<g id="layer115" fill="#bdbcd6" stroke="none">
 <path d="M10 250 l0 -240 890 0 890 0 0 240 0 240 -890 0 -890 0 0 -240z m662 184 c81 -56 121 -181 84 -268 -38 -90 -123 -142 -221 -134 -175 15 -259 242 -137 372 69 73 192 87 274 30z m319 -67 l34 -23 3 -118 3 -117 -27 3 -27 3 2 87 c2 93 -8 128 -39 128 -15 0 -19 -8 -22 -47 -3 -43 -6 -48 -29 -51 -25 -3 -27 0 -31 40 -5 51 7 80 42 102 34 21 51 20 91 -7z m136 3 c4 -16 14 -20 48 -20 34 0 44 4 48 20 3 13 14 20 29 20 35 0 37 -5 22 -53 -76 -232 -71 -222 -101 -222 -23 0 -29 6 -36 35 -5 19 -22 79 -37 132 -15 53 -25 100 -22 103 13 13 44 3 49 -15z m261 -32 c3 -46 4 -47 40 -50 32 -3 37 -7 40 -30 3 -27 1 -28 -37 -28 -37 0 -41 -2 -41 -25 0 -24 3 -25 55 -25 54 0 55 0 55 -30 l0 -30 -85 0 -85 0 0 128 c0 71 3 132 7 136 4 4 16 6 28 4 16 -2 21 -12 23 -50z"/>
 <path d="M508 453 c6 -2 12 -12 12 -20 0 -14 -2 -14 -19 1 -15 14 -24 15 -40 6 -25 -13 -26 -23 -5 -41 14 -11 16 -10 14 6 -4 34 0 39 13 22 17 -23 110 -10 115 16 3 14 -4 17 -50 16 -29 0 -47 -3 -40 -6z"/>
 <path d="M617 430 c-4 -14 0 -18 15 -15 13 3 18 0 15 -9 -3 -8 0 -19 6 -25 8 -8 -17 -11 -95 -11 -97 0 -108 -2 -122 -21 -16 -24 -11 -49 10 -49 17 0 18 12 2 28 -9 9 -8 12 5 12 26 0 41 -47 26 -82 -9 -23 -8 -33 10 -63 26 -44 26 -45 1 -45 -12 0 -17 5 -14 14 7 17 -12 31 -21 16 -4 -6 -4 -21 -1 -33 5 -21 11 -22 101 -22 52 0 95 1 95 3 0 1 -11 19 -24 40 -27 43 -41 92 -26 92 5 0 11 -8 12 -17 0 -10 2 -24 2 -31 1 -8 18 -20 39 -27 42 -14 53 -6 45 32 -4 21 -29 24 -36 4 -3 -10 0 -12 12 -8 9 4 16 2 16 -3 0 -18 -29 -11 -40 9 -15 29 -12 44 8 39 12 -3 22 3 29 18 14 29 -4 45 -22 21 -17 -23 -22 -21 -29 9 -9 34 20 70 41 53 9 -9 13 -9 13 0 0 6 6 11 13 11 14 0 39 -58 31 -71 -3 -5 0 -9 5 -9 6 0 11 -7 11 -15 0 -8 -7 -15 -15 -15 -8 0 -15 -4 -15 -10 0 -13 27 -13 35 1 10 16 -3 70 -25 107 -17 28 -23 32 -36 21 -11 -9 -18 -9 -26 -1 -8 8 -7 13 6 18 13 5 14 9 5 20 -6 8 -15 11 -20 8 -5 -3 -9 -1 -9 4 0 19 -28 21 -33 2z m44 -33 c-10 -9 -11 -8 -5 6 3 10 9 15 12 12 3 -3 0 -11 -7 -18z m-117 -63 c11 -28 6 -44 -12 -44 -10 0 -22 12 -29 30 -10 28 -10 30 12 30 12 0 26 -7 29 -16z m53 -31 c-3 -10 -5 -2 -5 17 0 19 2 27 5 18 2 -10 2 -26 0 -35z m-26 -94 c15 -48 15 -49 -4 -31 -20 18 -47 64 -47 81 0 5 8 7 18 4 10 -2 23 -24 33 -54z m-11 -67 c-14 -5 -30 16 -30 38 1 10 7 7 21 -10 14 -17 17 -26 9 -28z"/>
 <path d="M396 387 c-31 -41 -32 -47 -6 -40 15 4 19 2 15 -10 -4 -9 -14 -13 -26 -10 -10 3 -19 0 -19 -6 0 -6 7 -11 15 -11 8 0 15 -6 15 -12 1 -7 7 1 14 17 8 17 10 34 5 40 -5 5 -9 15 -9 22 0 10 5 11 18 4 14 -7 19 -6 19 4 0 8 -5 11 -10 8 -6 -4 -8 0 -4 10 10 26 1 20 -27 -16z"/>
 <path d="M700 329 c0 -5 5 -7 10 -4 6 3 10 8 10 11 0 2 -4 4 -10 4 -5 0 -10 -5 -10 -11z"/>
 <path d="M710 300 c0 -7 3 -10 7 -7 3 4 3 10 0 14 -4 3 -7 0 -7 -7z"/>
 <path d="M351 248 c0 -29 3 -47 6 -40 2 6 12 12 21 13 14 0 13 2 -3 9 -17 7 -17 9 -2 9 23 1 22 33 -3 49 -19 12 -20 10 -19 -40z m29 18 c0 -3 -4 -8 -10 -11 -5 -3 -10 -1 -10 4 0 6 5 11 10 11 6 0 10 -2 10 -4z"/>
 <path d="M740 233 c-8 -2 -26 -27 -40 -56 -20 -41 -34 -57 -70 -75 -24 -12 -39 -22 -32 -22 7 0 12 -7 12 -15 0 -22 20 -18 63 10 43 30 88 105 62 105 -19 0 -20 26 0 34 8 3 15 1 15 -3 0 -5 -6 -12 -12 -14 -10 -4 -10 -6 0 -6 13 -1 26 22 20 37 -1 4 -10 6 -18 5z m-10 -74 c0 -5 -7 -9 -15 -9 -9 0 -12 6 -9 15 6 15 24 11 24 -6z m-70 -79 c0 -15 -28 -19 -34 -4 -3 9 -1 12 4 9 6 -3 10 -1 10 5 0 6 5 8 10 5 6 -3 10 -10 10 -15z"/>
 <path d="M360 185 c0 -18 34 -66 65 -94 35 -30 38 -31 52 -14 13 17 14 17 8 -4 -4 -14 -2 -23 4 -23 6 0 11 6 11 14 0 8 6 17 13 19 12 6 -17 11 -42 8 -7 -2 -10 2 -7 7 9 15 -49 63 -67 56 -16 -6 -22 5 -18 29 0 4 -3 7 -9 7 -5 0 -10 -2 -10 -5z"/>
 <path d="M393 173 c4 -3 10 -3 14 0 3 4 0 7 -7 7 -7 0 -10 -3 -7 -7z"/>
 <path d="M522 60 c-10 -17 -10 -20 3 -20 8 0 15 9 15 20 0 11 -1 20 -3 20 -1 0 -8 -9 -15 -20z"/>
 <path d="M561 63 c12 -14 12 -16 0 -8 -10 5 -12 4 -7 -3 4 -7 16 -12 27 -12 17 0 18 3 7 20 -7 11 -19 20 -27 20 -11 0 -11 -3 0 -17z"/>
 <path d="M1169 293 c-14 -3 -15 -10 -6 -44 l10 -41 13 39 c20 56 20 56 -17 46z"/>
 </g>
<g id="layer116" fill="#c2c0d1" stroke="none">
 <path d="M10 245 l0 -235 890 0 890 0 0 235 0 235 -890 0 -890 0 0 -235z m662 189 c81 -56 121 -181 84 -268 -38 -90 -123 -142 -221 -134 -175 15 -259 242 -137 372 69 73 192 87 274 30z m319 -67 l34 -23 3 -118 3 -117 -27 3 -27 3 2 87 c2 93 -8 128 -39 128 -15 0 -19 -8 -22 -47 -3 -43 -6 -48 -29 -51 -25 -3 -27 0 -31 40 -5 51 7 80 42 102 34 21 51 20 91 -7z m136 3 c4 -16 14 -20 48 -20 34 0 44 4 48 20 3 13 14 20 29 20 35 0 37 -5 22 -53 -76 -232 -71 -222 -101 -222 -23 0 -29 6 -36 35 -5 19 -22 79 -37 132 -15 53 -25 100 -22 103 13 13 44 3 49 -15z m261 -32 c3 -46 4 -47 40 -50 32 -3 37 -7 40 -30 3 -27 1 -28 -37 -28 -37 0 -41 -2 -41 -25 0 -24 3 -25 55 -25 54 0 55 0 55 -30 l0 -30 -85 0 -85 0 0 128 c0 71 3 132 7 136 4 4 16 6 28 4 16 -2 21 -12 23 -50z"/>
 <path d="M508 453 c6 -2 12 -12 12 -20 0 -14 -2 -14 -19 1 -15 14 -24 15 -40 6 -25 -13 -26 -23 -5 -41 14 -11 16 -10 14 6 -4 34 0 39 13 22 17 -23 110 -10 115 16 3 14 -4 17 -50 16 -29 0 -47 -3 -40 -6z"/>
 <path d="M617 430 c-4 -14 0 -18 15 -15 13 3 18 0 15 -9 -3 -8 0 -19 6 -25 8 -8 -17 -11 -95 -11 -97 0 -108 -2 -122 -21 -16 -24 -11 -49 10 -49 17 0 18 12 2 28 -9 9 -8 12 5 12 26 0 41 -47 26 -82 -9 -23 -8 -33 10 -63 26 -44 26 -45 1 -45 -12 0 -17 5 -14 14 7 17 -12 31 -21 16 -4 -6 -4 -21 -1 -33 5 -21 11 -22 101 -22 52 0 95 1 95 3 0 1 -11 19 -24 40 -27 43 -41 92 -26 92 5 0 11 -8 12 -17 0 -10 2 -24 2 -31 1 -8 18 -20 39 -27 42 -14 53 -6 45 32 -4 21 -29 24 -36 4 -3 -10 0 -12 12 -8 9 4 16 2 16 -3 0 -18 -29 -11 -40 9 -15 29 -12 44 8 39 12 -3 22 3 29 18 14 29 -4 45 -22 21 -17 -23 -22 -21 -29 9 -9 34 20 70 41 53 9 -9 13 -9 13 0 0 6 6 11 13 11 14 0 39 -58 31 -71 -3 -5 0 -9 5 -9 6 0 11 -7 11 -15 0 -8 -7 -15 -15 -15 -8 0 -15 -4 -15 -10 0 -13 27 -13 35 1 10 16 -3 70 -25 107 -17 28 -23 32 -36 21 -11 -9 -18 -9 -26 -1 -8 8 -7 13 6 18 13 5 14 9 5 20 -6 8 -15 11 -20 8 -5 -3 -9 -1 -9 4 0 19 -28 21 -33 2z m44 -33 c-10 -9 -11 -8 -5 6 3 10 9 15 12 12 3 -3 0 -11 -7 -18z m-117 -63 c11 -28 6 -44 -12 -44 -10 0 -22 12 -29 30 -10 28 -10 30 12 30 12 0 26 -7 29 -16z m53 -31 c-3 -10 -5 -2 -5 17 0 19 2 27 5 18 2 -10 2 -26 0 -35z m-26 -94 c15 -48 15 -49 -4 -31 -20 18 -47 64 -47 81 0 5 8 7 18 4 10 -2 23 -24 33 -54z m-11 -67 c-14 -5 -30 16 -30 38 1 10 7 7 21 -10 14 -17 17 -26 9 -28z"/>
 <path d="M396 387 c-31 -41 -32 -47 -6 -40 15 4 19 2 15 -10 -4 -9 -14 -13 -26 -10 -10 3 -19 0 -19 -6 0 -6 7 -11 15 -11 8 0 15 -6 15 -12 1 -7 7 1 14 17 8 17 10 34 5 40 -5 5 -9 15 -9 22 0 10 5 11 18 4 14 -7 19 -6 19 4 0 8 -5 11 -10 8 -6 -4 -8 0 -4 10 10 26 1 20 -27 -16z"/>
 <path d="M700 329 c0 -5 5 -7 10 -4 6 3 10 8 10 11 0 2 -4 4 -10 4 -5 0 -10 -5 -10 -11z"/>
 <path d="M710 300 c0 -7 3 -10 7 -7 3 4 3 10 0 14 -4 3 -7 0 -7 -7z"/>
 <path d="M351 248 c0 -29 3 -47 6 -40 2 6 12 12 21 13 14 0 13 2 -3 9 -17 7 -17 9 -2 9 23 1 22 33 -3 49 -19 12 -20 10 -19 -40z m29 18 c0 -3 -4 -8 -10 -11 -5 -3 -10 -1 -10 4 0 6 5 11 10 11 6 0 10 -2 10 -4z"/>
 <path d="M740 233 c-8 -2 -26 -27 -40 -56 -20 -41 -34 -57 -70 -75 -24 -12 -39 -22 -32 -22 7 0 12 -7 12 -15 0 -22 20 -18 63 10 43 30 88 105 62 105 -19 0 -20 26 0 34 8 3 15 1 15 -3 0 -5 -6 -12 -12 -14 -10 -4 -10 -6 0 -6 13 -1 26 22 20 37 -1 4 -10 6 -18 5z m-10 -74 c0 -5 -7 -9 -15 -9 -9 0 -12 6 -9 15 6 15 24 11 24 -6z m-70 -79 c0 -15 -28 -19 -34 -4 -3 9 -1 12 4 9 6 -3 10 -1 10 5 0 6 5 8 10 5 6 -3 10 -10 10 -15z"/>
 <path d="M360 185 c0 -18 34 -66 65 -94 35 -30 38 -31 52 -14 13 17 14 17 8 -4 -4 -14 -2 -23 4 -23 6 0 11 6 11 14 0 8 6 17 13 19 12 6 -17 11 -42 8 -7 -2 -10 2 -7 7 9 15 -49 63 -67 56 -16 -6 -22 5 -18 29 0 4 -3 7 -9 7 -5 0 -10 -2 -10 -5z"/>
 <path d="M393 173 c4 -3 10 -3 14 0 3 4 0 7 -7 7 -7 0 -10 -3 -7 -7z"/>
 <path d="M522 60 c-10 -17 -10 -20 3 -20 8 0 15 9 15 20 0 11 -1 20 -3 20 -1 0 -8 -9 -15 -20z"/>
 <path d="M561 63 c12 -14 12 -16 0 -8 -10 5 -12 4 -7 -3 4 -7 16 -12 27 -12 17 0 18 3 7 20 -7 11 -19 20 -27 20 -11 0 -11 -3 0 -17z"/>
 <path d="M1169 293 c-14 -3 -15 -10 -6 -44 l10 -41 13 39 c20 56 20 56 -17 46z"/>
 </g>
<g id="layer117" fill="#d3d1db" stroke="none">
 <path d="M10 245 l0 -235 890 0 890 0 0 235 0 235 -890 0 -890 0 0 -235z m623 212 c39 -17 97 -64 97 -80 0 -8 -4 -7 -12 1 -13 13 -38 -1 -38 -21 0 -6 6 -3 13 8 10 13 16 15 21 6 4 -6 12 -9 17 -5 16 9 39 -62 39 -118 -1 -218 -276 -299 -397 -117 -32 48 -42 136 -23 194 16 49 66 104 115 126 48 22 123 24 168 6z m358 -90 l34 -23 3 -118 3 -117 -27 3 -27 3 2 87 c2 93 -8 128 -39 128 -15 0 -19 -8 -22 -47 -3 -43 -6 -48 -29 -51 -25 -3 -27 0 -31 40 -5 51 7 80 42 102 34 21 51 20 91 -7z m136 3 c4 -16 14 -20 48 -20 34 0 44 4 48 20 3 13 14 20 29 20 35 0 37 -5 22 -53 -76 -232 -71 -222 -101 -222 -23 0 -29 6 -36 35 -5 19 -22 79 -37 132 -15 53 -25 100 -22 103 13 13 44 3 49 -15z m261 -32 c3 -46 4 -47 40 -50 32 -3 37 -7 40 -30 3 -27 1 -28 -37 -28 -37 0 -41 -2 -41 -25 0 -24 3 -25 55 -25 54 0 55 0 55 -30 l0 -30 -85 0 -85 0 0 128 c0 71 3 132 7 136 4 4 16 6 28 4 16 -2 21 -12 23 -50z"/>
 <path d="M518 438 c5 -23 5 -23 -16 -4 -25 22 -38 17 -19 -7 18 -23 103 -12 110 14 4 16 -1 19 -38 19 -40 0 -43 -2 -37 -22z"/>
 <path d="M622 432 c2 -11 12 -17 26 -16 13 1 21 -3 19 -10 -3 -6 -10 -10 -16 -8 -7 1 -10 -2 -6 -8 4 -6 13 -5 25 2 14 9 16 16 8 25 -5 7 -14 10 -19 7 -5 -3 -9 -1 -9 4 0 6 -7 13 -16 16 -11 4 -14 1 -12 -12z"/>
 <path d="M444 429 c-3 -6 1 -18 11 -27 16 -16 17 -16 7 4 -6 12 -8 24 -5 28 3 3 4 6 0 6 -3 0 -9 -5 -13 -11z"/>
 <path d="M400 393 c-19 -24 -20 -29 -6 -39 9 -6 12 -15 8 -19 -4 -5 -1 -5 5 -1 10 5 10 11 1 26 -15 23 -4 37 15 22 10 -9 14 -8 14 3 0 8 -5 11 -10 8 -6 -4 -8 0 -4 10 9 24 1 21 -23 -10z"/>
 <path d="M448 359 c-22 -12 -24 -59 -3 -59 18 0 19 12 3 29 -11 10 -9 12 7 9 27 -5 42 -51 26 -81 -11 -20 -10 -29 8 -58 26 -42 26 -49 2 -49 -10 0 -18 6 -17 13 2 19 -19 23 -22 3 -6 -28 14 -42 53 -38 34 4 36 6 30 36 l-6 31 21 -24 c16 -19 18 -26 8 -32 -7 -5 -11 -9 -8 -10 18 -3 100 -6 100 -3 0 3 -11 21 -24 42 -29 44 -43 92 -27 92 10 0 12 -7 15 -50 1 -8 18 -18 41 -23 22 -6 42 -11 44 -13 11 -10 -36 -58 -72 -75 -23 -10 -36 -19 -29 -19 6 0 12 -7 12 -15 0 -8 5 -15 11 -15 6 0 9 9 6 20 -3 11 -1 18 4 14 5 -3 9 1 9 8 1 9 5 7 14 -4 12 -17 15 -16 39 6 14 13 32 37 41 55 17 31 12 38 -21 29 -5 -1 -10 11 -13 28 -5 30 -30 40 -38 15 -3 -10 0 -12 12 -8 9 4 16 2 16 -3 0 -18 -29 -11 -40 9 -15 28 -12 41 8 41 22 0 46 36 30 46 -6 4 -17 -1 -25 -12 -12 -16 -15 -17 -23 -4 -14 22 -12 41 6 61 15 16 10 17 -83 18 -54 0 -106 -4 -115 -10z m97 -44 c0 -42 -22 -42 -40 1 -8 20 -15 38 -15 39 0 2 12 0 28 -4 21 -6 27 -13 27 -36z m52 -12 c-3 -10 -5 -2 -5 17 0 19 2 27 5 18 2 -10 2 -26 0 -35z m-28 -91 c18 -52 18 -52 -1 -35 -22 20 -48 65 -48 83 0 6 7 10 16 8 9 -2 23 -26 33 -56z m161 -53 c0 -5 -7 -9 -15 -9 -9 0 -12 6 -9 15 6 15 24 11 24 -6z"/>
 <path d="M710 340 c-8 -5 -12 -11 -10 -14 3 -2 14 2 24 10 22 15 10 19 -14 4z"/>
 <path d="M360 320 c0 -5 10 -10 23 -10 18 0 19 2 7 10 -19 13 -30 13 -30 0z"/>
 <path d="M734 310 c0 -11 7 -22 14 -25 10 -4 12 0 8 11 -3 8 -6 20 -6 25 0 5 -4 9 -8 9 -4 0 -8 -9 -8 -20z"/>
 <path d="M710 300 c0 -7 3 -10 7 -7 3 4 3 10 0 14 -4 3 -7 0 -7 -7z"/>
 <path d="M350 288 c0 -7 10 -14 21 -15 12 -1 20 -1 18 0 -2 2 -12 9 -21 16 -15 11 -18 11 -18 -1z"/>
 <path d="M738 262 c-10 -2 -18 -8 -18 -13 0 -11 11 -11 30 1 18 11 11 18 -12 12z"/>
 <path d="M368 253 c-12 -3 -18 -14 -18 -31 0 -20 3 -23 9 -12 6 8 7 18 5 22 -3 4 2 8 10 8 9 0 16 5 16 10 0 6 -1 9 -2 9 -2 -1 -11 -3 -20 -6z"/>
 <path d="M716 214 c-5 -14 -4 -15 9 -4 9 7 19 10 22 6 4 -4 1 -12 -7 -17 -13 -9 -13 -10 0 -6 8 2 16 11 18 20 5 23 -34 23 -42 1z"/>
 <path d="M360 185 c0 -18 34 -66 65 -94 35 -30 38 -31 52 -14 13 17 14 17 8 -4 -4 -14 -2 -23 5 -23 6 0 10 10 8 22 -2 16 -9 22 -22 20 -10 -2 -15 1 -12 6 9 15 -49 63 -67 56 -16 -6 -22 5 -18 29 0 4 -3 7 -9 7 -5 0 -10 -2 -10 -5z"/>
 <path d="M393 173 c4 -3 10 -3 14 0 3 4 0 7 -7 7 -7 0 -10 -3 -7 -7z"/>
 <path d="M522 60 c-10 -17 -10 -20 3 -20 8 0 15 9 15 20 0 11 -1 20 -3 20 -1 0 -8 -9 -15 -20z"/>
 <path d="M558 73 c6 -2 12 -11 12 -19 0 -8 7 -14 15 -14 13 0 13 3 3 20 -7 11 -20 20 -28 19 -10 0 -11 -2 -2 -6z"/>
 <path d="M1169 293 c-14 -3 -15 -10 -6 -44 l10 -41 13 39 c20 56 20 56 -17 46z"/>
 </g>
<g id="layer118" fill="#e0dfe8" stroke="none">
 <path d="M10 245 l0 -235 890 0 890 0 0 235 0 235 -890 0 -890 0 0 -235z m628 209 c39 -16 92 -61 92 -78 0 -6 -5 -5 -12 2 -13 13 -38 -1 -38 -21 0 -6 6 -3 13 8 10 13 16 15 21 6 4 -6 12 -9 17 -5 16 9 39 -62 39 -118 -1 -125 -94 -218 -217 -218 -121 1 -213 97 -213 222 1 87 46 160 125 201 39 21 125 21 173 1z m353 -87 l34 -23 3 -118 3 -117 -27 3 -27 3 2 87 c2 94 -8 128 -39 128 -17 0 -20 -7 -20 -50 0 -48 -1 -50 -29 -50 -27 0 -29 3 -33 43 -5 48 11 85 44 104 33 18 51 16 89 -10z m144 3 c5 -15 15 -20 45 -20 29 0 39 4 43 20 3 13 14 20 29 20 32 0 38 -7 29 -33 -5 -12 -21 -62 -36 -112 -43 -139 -42 -137 -72 -133 -28 3 -30 8 -63 128 -7 25 -16 56 -20 70 -5 14 -11 37 -14 53 -6 25 -4 27 23 27 21 0 32 -6 36 -20z m255 -29 l0 -50 38 -3 c32 -3 37 -7 40 -30 3 -27 1 -28 -37 -28 -37 0 -41 -2 -41 -25 0 -24 3 -25 55 -25 54 0 55 0 55 -30 l0 -30 -85 0 -85 0 0 135 0 135 30 0 c29 0 30 -1 30 -49z"/>
 <path d="M517 440 c4 -15 14 -20 38 -20 24 0 34 5 38 20 5 18 0 20 -38 20 -38 0 -43 -2 -38 -20z"/>
 <path d="M480 438 c0 -18 18 -34 28 -24 3 4 -2 14 -11 23 -16 16 -17 16 -17 1z"/>
 <path d="M622 432 c2 -11 12 -17 26 -16 15 1 21 -3 18 -12 -3 -8 0 -11 10 -7 11 4 12 9 3 19 -6 8 -15 11 -20 8 -5 -3 -9 -1 -9 4 0 6 -7 13 -16 16 -11 4 -14 1 -12 -12z"/>
 <path d="M444 429 c-3 -6 1 -18 11 -27 16 -16 17 -16 7 4 -6 12 -8 24 -5 28 3 3 4 6 0 6 -3 0 -9 -5 -13 -11z"/>
 <path d="M392 356 c10 -7 14 -17 10 -21 -4 -5 -1 -5 6 -1 10 6 10 11 1 22 -6 8 -17 14 -23 14 -6 0 -3 -7 6 -14z"/>
 <path d="M448 359 c-20 -11 -24 -44 -7 -54 17 -11 23 3 8 21 -12 14 -11 16 6 13 28 -6 42 -52 26 -82 -11 -21 -10 -29 13 -66 l26 -41 -25 0 c-17 0 -23 4 -19 14 3 8 1 17 -5 21 -16 9 -24 -20 -12 -42 7 -15 18 -18 44 -15 35 4 35 4 31 50 -1 26 -6 58 -10 71 -5 18 -3 22 10 20 11 -3 25 -25 36 -56 18 -52 11 -73 -10 -32 -7 11 -14 18 -17 15 -4 -3 1 -14 11 -24 9 -11 14 -25 11 -33 -4 -11 6 -14 40 -14 47 -1 54 5 31 25 -18 15 -51 98 -42 107 9 10 17 -2 20 -33 3 -24 9 -30 42 -38 21 -5 42 -14 46 -20 5 -7 8 -6 8 4 1 12 3 12 14 -3 12 -15 14 -16 20 -2 5 14 -8 19 -31 13 -5 -1 -10 11 -13 28 -3 16 -11 29 -18 29 -6 0 -11 -4 -9 -10 1 -5 5 -9 10 -8 4 2 7 -2 7 -7 0 -18 -29 -11 -40 9 -15 28 -12 41 8 41 22 0 46 36 30 46 -6 4 -17 -1 -24 -10 -7 -10 -17 -15 -23 -11 -17 10 -13 56 5 70 13 9 -3 12 -82 13 -55 1 -107 -3 -116 -9z m100 -47 c5 -45 -24 -43 -44 3 -18 45 -19 44 14 36 21 -6 28 -14 30 -39z m54 8 c3 -16 1 -30 -4 -30 -4 0 -8 14 -8 30 0 17 2 30 4 30 2 0 6 -13 8 -30z"/>
 <path d="M723 343 c4 -3 10 -3 14 0 3 4 0 7 -7 7 -7 0 -10 -3 -7 -7z"/>
 <path d="M360 320 c0 -5 10 -10 23 -10 18 0 19 2 7 10 -19 13 -30 13 -30 0z"/>
 <path d="M350 288 c0 -7 10 -14 21 -15 12 -1 20 -1 18 0 -2 2 -12 9 -21 16 -15 11 -18 11 -18 -1z"/>
 <path d="M730 296 c0 -2 7 -7 16 -10 8 -3 12 -2 9 4 -6 10 -25 14 -25 6z"/>
 <path d="M745 261 c-3 -6 -11 -9 -16 -6 -5 4 -9 1 -9 -4 0 -13 10 -14 30 -1 8 5 12 12 8 15 -3 4 -9 1 -13 -4z"/>
 <path d="M368 253 c-10 -2 -18 -13 -18 -24 0 -11 5 -17 10 -14 6 4 8 11 5 16 -4 5 1 9 9 9 9 0 16 5 16 10 0 6 -1 9 -2 9 -2 -1 -11 -3 -20 -6z"/>
 <path d="M720 219 c0 -5 5 -7 10 -4 6 3 10 8 10 11 0 2 -4 4 -10 4 -5 0 -10 -5 -10 -11z"/>
 <path d="M742 204 c-7 -8 -8 -14 -3 -14 10 0 25 19 20 25 -2 1 -10 -3 -17 -11z"/>
 <path d="M360 184 c0 -22 60 -97 92 -115 11 -6 18 -4 22 7 3 9 2 12 -5 9 -6 -4 -9 -1 -7 6 4 22 -47 70 -66 63 -14 -6 -21 5 -17 29 0 4 -3 7 -9 7 -5 0 -10 -3 -10 -6z"/>
 <path d="M676 131 c-10 -11 -30 -24 -46 -31 -20 -8 -26 -17 -23 -31 3 -10 10 -19 15 -19 5 0 7 8 3 19 -7 23 23 38 32 15 5 -12 12 -9 39 17 32 31 36 49 10 49 -7 0 -21 -9 -30 -19z"/>
 <path d="M487 76 c-4 -10 -5 -21 -2 -24 9 -9 17 6 13 25 -3 17 -4 17 -11 -1z"/>
 <path d="M522 60 c-10 -17 -10 -20 3 -20 8 0 15 9 15 20 0 11 -1 20 -3 20 -1 0 -8 -9 -15 -20z"/>
 <path d="M558 73 c6 -2 12 -11 12 -19 0 -8 7 -14 15 -14 13 0 13 3 3 20 -7 11 -20 20 -28 19 -10 0 -11 -2 -2 -6z"/>
 <path d="M1168 292 c-13 -5 -15 -11 -8 -22 5 -8 10 -26 10 -40 1 -20 4 -17 15 15 21 58 20 62 -17 47z"/>
 </g>
<g id="layer119" fill="#ffffff" stroke="none">
 <path d="M10 245 l0 -235 890 0 890 0 0 235 0 235 -890 0 -890 0 0 -235z m628 209 c84 -35 131 -110 132 -209 0 -81 -44 -157 -109 -192 -47 -25 -138 -31 -184 -14 -40 16 -99 73 -118 116 -25 54 -25 145 0 193 23 44 76 97 111 111 38 15 126 13 168 -5z m359 -90 l33 -25 0 -115 0 -114 -27 0 -28 0 4 91 c2 74 0 94 -14 109 -26 29 -45 14 -45 -36 0 -42 -1 -44 -29 -44 -27 0 -29 3 -33 43 -5 48 11 85 44 104 34 19 58 16 95 -13z m138 6 c5 -15 15 -20 45 -20 29 0 39 4 43 20 4 15 14 20 36 20 17 0 31 -3 31 -6 0 -3 -19 -66 -42 -140 l-42 -134 -31 0 -31 0 -37 133 c-21 72 -37 135 -37 140 0 4 13 7 29 7 21 0 32 -6 36 -20z m255 -29 l0 -50 38 -3 c32 -3 37 -7 40 -30 3 -27 1 -28 -37 -28 -37 0 -41 -2 -41 -25 0 -24 3 -25 55 -25 54 0 55 0 55 -30 l0 -30 -85 0 -85 0 0 135 0 135 30 0 c29 0 30 -1 30 -49z"/>
 <path d="M520 440 c7 -13 21 -20 40 -20 23 0 30 4 30 20 0 17 -7 20 -40 20 -38 0 -40 -2 -30 -20z"/>
 <path d="M480 445 c0 -15 18 -40 24 -34 3 3 -1 14 -9 25 -8 10 -14 15 -15 9z"/>
 <path d="M620 435 c0 -20 17 -28 23 -11 3 8 -1 17 -9 20 -8 3 -14 -1 -14 -9z"/>
 <path d="M446 417 c3 -10 9 -15 12 -12 3 3 0 11 -7 18 -10 9 -11 8 -5 -6z"/>
 <path d="M705 380 c3 -5 8 -10 11 -10 3 0 2 5 -1 10 -3 6 -8 10 -11 10 -3 0 -2 -4 1 -10z"/>
 <path d="M387 359 c7 -7 15 -10 18 -7 3 3 -2 9 -12 12 -14 6 -15 5 -6 -5z"/>
 <path d="M448 356 c-10 -7 -18 -20 -18 -29 0 -18 18 -32 28 -22 3 3 0 10 -8 15 -11 7 -12 12 -4 20 8 8 16 7 28 -5 19 -19 21 -57 5 -83 -9 -15 -6 -26 15 -60 l26 -42 -25 0 c-18 0 -23 4 -19 15 4 9 0 15 -10 15 -18 0 -20 -13 -7 -39 7 -13 19 -16 46 -13 35 4 35 5 29 40 -5 27 -4 33 6 27 8 -5 7 1 -3 16 -22 30 -22 62 -1 57 9 -2 25 -25 35 -53 24 -64 24 -72 -3 -49 -15 12 -18 13 -10 3 7 -9 10 -23 7 -30 -4 -11 6 -14 40 -14 44 -1 56 7 34 21 -13 7 -48 82 -49 102 0 25 21 11 27 -18 6 -34 7 -35 48 -44 l30 -8 -28 22 c-32 26 -36 60 -7 60 11 0 20 7 20 15 0 8 5 15 12 15 9 0 9 3 -1 13 -10 10 -15 8 -26 -7 -8 -10 -18 -15 -24 -11 -17 10 -13 63 5 73 10 5 -20 9 -83 10 -68 1 -103 -3 -115 -12z m76 -6 c20 -7 26 -16 26 -40 0 -43 -32 -41 -48 3 -19 52 -18 53 22 37z m78 -30 c3 -16 1 -30 -4 -30 -4 0 -8 14 -8 30 0 17 2 30 4 30 2 0 6 -13 8 -30z"/>
 <path d="M360 319 c0 -5 9 -9 20 -9 11 0 20 2 20 4 0 2 -9 6 -20 9 -11 3 -20 1 -20 -4z"/>
 <path d="M745 290 c3 -5 8 -10 11 -10 3 0 2 5 -1 10 -3 6 -8 10 -11 10 -3 0 -2 -4 1 -10z"/>
 <path d="M360 280 c8 -5 20 -10 25 -10 6 0 3 5 -5 10 -8 5 -19 10 -25 10 -5 0 -3 -5 5 -10z"/>
 <path d="M720 250 c0 -5 5 -10 11 -10 5 0 7 5 4 10 -3 6 -8 10 -11 10 -2 0 -4 -4 -4 -10z"/>
 <path d="M373 243 c4 -3 10 -3 14 0 3 4 0 7 -7 7 -7 0 -10 -3 -7 -7z"/>
 <path d="M666 231 c-4 -5 -2 -12 4 -16 5 -3 10 -3 10 2 0 4 5 1 11 -7 8 -12 10 -12 7 4 -3 22 -23 32 -32 17z"/>
 <path d="M350 219 c0 -5 5 -7 10 -4 6 3 10 8 10 11 0 2 -4 4 -10 4 -5 0 -10 -5 -10 -11z"/>
 <path d="M723 223 c4 -3 10 -3 14 0 3 4 0 7 -7 7 -7 0 -10 -3 -7 -7z"/>
 <path d="M733 193 c4 -3 10 -3 14 0 3 4 0 7 -7 7 -7 0 -10 -3 -7 -7z"/>
 <path d="M363 183 c4 -3 10 -3 14 0 3 4 0 7 -7 7 -7 0 -10 -3 -7 -7z"/>
 <path d="M710 185 c0 -10 29 -24 34 -17 3 6 -3 12 -14 15 -11 3 -20 4 -20 2z"/>
 <path d="M370 163 c0 -15 73 -93 87 -93 18 0 9 32 -17 59 -14 15 -31 25 -39 22 -7 -2 -17 2 -22 10 -6 9 -9 10 -9 2z"/>
 <path d="M671 127 c-13 -15 -19 -30 -15 -41 6 -15 11 -13 40 15 32 31 36 49 10 49 -7 0 -22 -11 -35 -23z"/>
 <path d="M487 70 c-3 -11 -1 -20 4 -20 5 0 9 9 9 20 0 11 -2 20 -4 20 -2 0 -6 -9 -9 -20z"/>
 <path d="M610 73 c0 -13 5 -23 10 -23 13 0 13 11 0 30 -8 12 -10 11 -10 -7z"/>
 <path d="M558 73 c6 -2 12 -11 12 -19 0 -8 5 -14 10 -14 7 0 7 6 0 20 -6 11 -16 20 -23 19 -9 0 -9 -2 1 -6z"/>
 <path d="M526 61 c-4 -7 -5 -15 -2 -18 9 -9 19 4 14 18 -4 11 -6 11 -12 0z"/>
 <path d="M1160 271 c5 -11 10 -30 11 -43 1 -23 1 -23 9 2 14 44 11 60 -10 60 -17 0 -19 -3 -10 -19z"/>
 </g>

</svg>