<!DOCTYPE svg PUBLIC "-//W3C//DTD SVG 20010904//EN" "http://www.w3.org/TR/2001/REC-SVG-20010904/DTD/svg10.dtd">
<svg version="1.0" xmlns="http://www.w3.org/2000/svg" width="576px" height="118px" viewBox="0 0 5760 1180" preserveAspectRatio="xMidYMid meet">
<g id="layer101" fill="#000041" stroke="none">
 <path d="M2320 590 l0 -590 195 0 195 0 2 213 3 212 79 -213 78 -212 184 0 c101 0 184 2 184 5 0 2 -48 120 -107 262 -58 142 -106 265 -105 273 1 8 53 154 117 324 63 169 115 310 115 312 0 2 -91 4 -203 4 l-202 0 -70 -231 -70 -231 -3 231 -2 231 -195 0 -195 0 0 -590z"/>
 <path d="M3320 590 l0 -590 320 0 320 0 0 120 0 120 -125 0 -125 0 0 110 0 110 120 0 120 0 0 115 0 115 -120 0 -120 0 0 125 0 125 140 0 140 0 0 120 0 120 -335 0 -335 0 0 -590z"/>
 <path d="M4090 590 l0 -590 195 0 195 0 0 590 0 590 -195 0 -195 0 0 -590z"/>
 <path d="M4560 1096 l0 -85 145 -380 c80 -209 145 -383 145 -386 0 -3 -56 -5 -125 -5 l-125 0 0 -120 0 -120 340 0 340 0 0 117 0 117 -140 346 c-77 190 -140 349 -140 353 0 4 63 7 140 7 l140 0 0 120 0 120 -360 0 -360 0 0 -84z"/>
 <path d="M5380 1060 l0 -120 180 0 180 0 0 120 0 120 -180 0 -180 0 0 -120z"/>
 <path d="M5410 871 c0 -27 -48 -741 -54 -813 l-6 -58 205 0 205 0 0 33 c0 17 -12 218 -27 445 l-27 412 -148 0 c-140 0 -148 -1 -148 -19z"/>
 <path d="M916 299 c-14 -11 -26 -25 -26 -30 0 -14 33 -10 54 6 26 20 71 19 90 -1 25 -24 19 -33 -18 -27 -76 12 -126 -24 -126 -91 1 -44 13 -66 47 -84 29 -16 86 -15 102 1 11 9 14 9 18 0 3 -7 11 -13 19 -13 11 0 14 20 14 95 0 100 -13 147 -45 159 -36 13 -102 6 -129 -15z m120 -104 c29 -29 26 -58 -8 -87 -28 -25 -55 -22 -83 7 -31 30 -31 52 -3 82 28 30 63 29 94 -2z"/>
 <path d="M1722 293 c-23 -24 -25 -28 -10 -31 10 -2 28 4 40 12 31 22 74 20 98 -4 26 -26 27 -44 1 -30 -65 34 -151 -14 -151 -85 0 -71 86 -119 151 -85 13 7 19 7 19 0 0 -5 7 -10 15 -10 12 0 15 18 15 105 0 99 -2 107 -25 130 -19 20 -34 25 -75 25 -42 0 -56 -5 -78 -27z m128 -93 c11 -11 20 -30 20 -42 0 -29 -38 -68 -66 -68 -34 0 -66 32 -66 65 0 56 72 85 112 45z"/>
 <path d="M53 246 c-39 -18 -53 -43 -53 -94 0 -55 38 -92 94 -92 23 0 47 5 54 12 9 9 12 9 12 0 0 -7 9 -12 20 -12 19 0 20 7 20 95 l0 95 -32 -2 c-18 -1 -44 2 -58 5 -14 4 -39 1 -57 -7z m92 -46 c37 -41 7 -110 -48 -110 -27 0 -67 38 -67 65 0 58 76 89 115 45z"/>
 <path d="M293 253 c-39 -7 -53 -41 -53 -120 0 -56 3 -73 14 -73 10 0 15 19 18 71 4 74 13 89 55 89 34 0 53 -37 53 -102 0 -45 3 -58 15 -58 23 0 21 141 -2 168 -19 21 -63 32 -100 25z"/>
 <path d="M630 253 c-30 -11 -60 -47 -66 -78 -7 -37 16 -89 45 -105 31 -16 96 -12 120 7 45 37 43 128 -2 158 -27 17 -76 27 -97 18z m84 -55 c9 -12 16 -31 16 -42 0 -28 -39 -66 -67 -66 -52 0 -82 72 -46 112 23 26 78 24 97 -4z"/>
 <path d="M1184 250 c-34 -13 -64 -59 -64 -97 0 -69 87 -117 151 -83 13 7 19 7 19 0 0 -5 7 -10 15 -10 12 0 15 17 15 95 0 78 -3 95 -15 95 -8 0 -15 -4 -15 -9 0 -6 -12 -3 -27 5 -31 16 -48 17 -79 4z m90 -52 c22 -31 20 -58 -6 -85 -25 -27 -54 -29 -86 -7 -27 18 -30 69 -5 96 23 26 78 24 97 -4z"/>
 <path d="M1530 253 c-30 -11 -60 -47 -66 -78 -7 -37 16 -89 45 -105 25 -13 77 -13 102 0 13 7 19 7 19 0 0 -5 9 -10 20 -10 19 0 20 7 20 95 l0 95 -32 -1 c-18 -1 -46 1 -63 4 -16 3 -37 4 -45 0z m83 -51 c38 -33 6 -112 -46 -112 -29 0 -67 34 -67 61 0 30 18 59 43 68 25 9 44 5 70 -17z"/>
 <path d="M2003 253 c-63 -13 -86 -118 -37 -167 29 -28 87 -36 126 -15 16 9 48 64 48 84 0 3 -38 5 -85 5 -47 0 -85 4 -85 9 0 5 8 19 18 31 23 28 66 29 95 2 16 -15 27 -18 37 -12 13 8 11 13 -10 34 -26 26 -68 38 -107 29z m87 -133 c0 -12 -34 -30 -58 -30 -10 0 -27 9 -37 20 -18 20 -17 20 38 20 32 0 57 -4 57 -10z"/>
 <path d="M470 170 c0 -64 -3 -80 -15 -80 -8 0 -15 -7 -15 -15 0 -8 7 -15 15 -15 10 0 15 -10 15 -30 0 -23 4 -30 20 -30 16 0 20 7 20 30 0 23 4 30 20 30 11 0 20 7 20 15 0 8 -9 15 -20 15 -18 0 -20 7 -20 80 0 73 -2 80 -20 80 -18 0 -20 -7 -20 -80z"/>
 <path d="M1360 157 l0 -94 50 -1 c54 -1 66 13 25 28 -31 12 -45 46 -45 111 0 37 -4 49 -15 49 -12 0 -15 -17 -15 -93z"/>
 </g>
<g id="layer102" fill="#9f0000" stroke="none">
 <path d="M916 299 c-14 -11 -26 -25 -26 -30 0 -14 33 -10 54 6 26 20 71 19 90 -1 25 -24 19 -33 -18 -27 -76 12 -126 -24 -126 -91 1 -44 13 -66 47 -84 29 -16 86 -15 102 1 11 9 14 9 18 0 3 -7 11 -13 19 -13 11 0 14 20 14 95 0 100 -13 147 -45 159 -36 13 -102 6 -129 -15z m120 -104 c29 -29 26 -58 -8 -87 -28 -25 -55 -22 -83 7 -31 30 -31 52 -3 82 28 30 63 29 94 -2z"/>
 <path d="M1722 293 c-23 -24 -25 -28 -10 -31 10 -2 28 4 40 12 31 22 74 20 98 -4 26 -26 27 -44 1 -30 -65 34 -151 -14 -151 -85 0 -71 86 -119 151 -85 13 7 19 7 19 0 0 -5 7 -10 15 -10 12 0 15 18 15 105 0 99 -2 107 -25 130 -19 20 -34 25 -75 25 -42 0 -56 -5 -78 -27z m128 -93 c11 -11 20 -30 20 -42 0 -29 -38 -68 -66 -68 -34 0 -66 32 -66 65 0 56 72 85 112 45z"/>
 <path d="M53 246 c-39 -18 -53 -43 -53 -94 0 -55 38 -92 94 -92 23 0 47 5 54 12 9 9 12 9 12 0 0 -7 9 -12 20 -12 19 0 20 7 20 95 l0 95 -32 -2 c-18 -1 -44 2 -58 5 -14 4 -39 1 -57 -7z m92 -46 c37 -41 7 -110 -48 -110 -27 0 -67 38 -67 65 0 58 76 89 115 45z"/>
 <path d="M293 253 c-39 -7 -53 -41 -53 -120 0 -56 3 -73 14 -73 10 0 15 19 18 71 4 74 13 89 55 89 34 0 53 -37 53 -102 0 -45 3 -58 15 -58 23 0 21 141 -2 168 -19 21 -63 32 -100 25z"/>
 <path d="M630 253 c-30 -11 -60 -47 -66 -78 -7 -37 16 -89 45 -105 31 -16 96 -12 120 7 45 37 43 128 -2 158 -27 17 -76 27 -97 18z m84 -55 c9 -12 16 -31 16 -42 0 -28 -39 -66 -67 -66 -52 0 -82 72 -46 112 23 26 78 24 97 -4z"/>
 <path d="M1184 250 c-34 -13 -64 -59 -64 -97 0 -69 87 -117 151 -83 13 7 19 7 19 0 0 -5 7 -10 15 -10 12 0 15 17 15 95 0 78 -3 95 -15 95 -8 0 -15 -4 -15 -9 0 -6 -12 -3 -27 5 -31 16 -48 17 -79 4z m90 -52 c22 -31 20 -58 -6 -85 -25 -27 -54 -29 -86 -7 -27 18 -30 69 -5 96 23 26 78 24 97 -4z"/>
 <path d="M1530 253 c-30 -11 -60 -47 -66 -78 -7 -37 16 -89 45 -105 25 -13 77 -13 102 0 13 7 19 7 19 0 0 -5 9 -10 20 -10 19 0 20 7 20 95 l0 95 -32 -1 c-18 -1 -46 1 -63 4 -16 3 -37 4 -45 0z m83 -51 c38 -33 6 -112 -46 -112 -29 0 -67 34 -67 61 0 30 18 59 43 68 25 9 44 5 70 -17z"/>
 <path d="M2003 253 c-63 -13 -86 -118 -37 -167 29 -28 87 -36 126 -15 16 9 48 64 48 84 0 3 -38 5 -85 5 -47 0 -85 4 -85 9 0 5 8 19 18 31 23 28 66 29 95 2 16 -15 27 -18 37 -12 13 8 11 13 -10 34 -26 26 -68 38 -107 29z m87 -133 c0 -12 -34 -30 -58 -30 -10 0 -27 9 -37 20 -18 20 -17 20 38 20 32 0 57 -4 57 -10z"/>
 <path d="M470 170 c0 -64 -3 -80 -15 -80 -8 0 -15 -7 -15 -15 0 -8 7 -15 15 -15 10 0 15 -10 15 -30 0 -23 4 -30 20 -30 16 0 20 7 20 30 0 23 4 30 20 30 11 0 20 7 20 15 0 8 -9 15 -20 15 -18 0 -20 7 -20 80 0 73 -2 80 -20 80 -18 0 -20 -7 -20 -80z"/>
 <path d="M1360 157 l0 -94 50 -1 c54 -1 66 13 25 28 -31 12 -45 46 -45 111 0 37 -4 49 -15 49 -12 0 -15 -17 -15 -93z"/>
 </g>

</svg>